<?xml version="1.0" encoding="UTF-8" standalone="no"?>
<svg
   xmlns:ooo="http://xml.openoffice.org/svg/export"
   xmlns:dc="http://purl.org/dc/elements/1.1/"
   xmlns:cc="http://creativecommons.org/ns#"
   xmlns:rdf="http://www.w3.org/1999/02/22-rdf-syntax-ns#"
   xmlns:svg="http://www.w3.org/2000/svg"
   xmlns="http://www.w3.org/2000/svg"
   xmlns:sodipodi="http://sodipodi.sourceforge.net/DTD/sodipodi-0.dtd"
   xmlns:inkscape="http://www.inkscape.org/namespaces/inkscape"
   version="1.2"
   width="410"
   height="650"
   viewBox="0 0 11571.111 18344.444"
   preserveAspectRatio="xMidYMid"
   clip-path="url(#presentation_clip_path)"
   xml:space="preserve"
   id="svg2"
   inkscape:version="0.48.4 r9939"
   sodipodi:docname="OdroidCase-Standard ohne Blende2.pdf"
   style="fill-rule:evenodd;stroke-width:28.22200012;stroke-linejoin:round"><metadata
     id="metadata258"><rdf:RDF><cc:Work
         rdf:about=""><dc:format>image/svg+xml</dc:format><dc:type
           rdf:resource="http://purl.org/dc/dcmitype/StillImage" /><dc:title></dc:title></cc:Work></rdf:RDF></metadata><sodipodi:namedview
     pagecolor="#ffffff"
     bordercolor="#666666"
     borderopacity="1"
     objecttolerance="10"
     gridtolerance="10"
     guidetolerance="10"
     inkscape:pageopacity="0"
     inkscape:pageshadow="2"
     inkscape:window-width="946"
     inkscape:window-height="1043"
     id="namedview256"
     showgrid="false"
     inkscape:zoom="0.58946907"
     inkscape:cx="436.1514"
     inkscape:cy="353.21199"
     inkscape:window-x="2880"
     inkscape:window-y="0"
     inkscape:window-maximized="0"
     inkscape:current-layer="svg2" /><defs
     class="ClipPathGroup"
     id="defs4"><clipPath
       id="presentation_clip_path"
       clipPathUnits="userSpaceOnUse"><rect
         x="0"
         y="0"
         width="60900"
         height="30400"
         id="rect7" /></clipPath></defs><defs
     class="TextShapeIndex"
     id="defs9"><g
       ooo:slide="id1"
       ooo:id-list="id3 id4 id5 id6 id7 id8 id9 id10 id11 id12 id13 id14 id15 id16 id17 id18 id19 id20 id21 id22 id23 id24 id25 id26 id27 id28 id29 id30 id31 id32 id33 id34 id35 id36 id37 id38"
       id="g11" /></defs><defs
     class="EmbeddedBulletChars"
     id="defs13"><g
       id="bullet-char-template(57356)"
       transform="scale(4.8828125e-4,-4.8828125e-4)"><path
         d="M 580,1141 1163,571 580,0 -4,571 580,1141 z"
         id="path16"
         inkscape:connector-curvature="0" /></g><g
       id="bullet-char-template(57354)"
       transform="scale(4.8828125e-4,-4.8828125e-4)"><path
         d="m 8,1128 1129,0 L 1137,0 8,0 8,1128 z"
         id="path19"
         inkscape:connector-curvature="0" /></g><g
       id="bullet-char-template(10146)"
       transform="scale(4.8828125e-4,-4.8828125e-4)"><path
         d="M 174,0 602,739 174,1481 1456,739 174,0 z m 1184,739 -1049,607 350,-607 699,0 z"
         id="path22"
         inkscape:connector-curvature="0" /></g><g
       id="bullet-char-template(10132)"
       transform="scale(4.8828125e-4,-4.8828125e-4)"><path
         d="M 2015,739 1276,0 717,0 l 543,543 -1086,0 0,393 1086,0 -543,545 557,0 741,-742 z"
         id="path25"
         inkscape:connector-curvature="0" /></g><g
       id="bullet-char-template(10007)"
       transform="scale(4.8828125e-4,-4.8828125e-4)"><path
         d="m 0,-2 c -7,16 -16,29 -25,39 l 381,530 c -94,256 -141,385 -141,387 0,25 13,38 40,38 9,0 21,-2 34,-5 21,4 42,12 65,25 l 27,-13 111,-251 280,301 64,-25 24,25 c 21,-10 41,-24 62,-43 C 886,937 835,863 770,784 769,783 710,716 594,584 L 774,223 c 0,-27 -21,-55 -63,-84 l 16,-20 C 717,90 699,76 672,76 641,76 570,178 457,381 L 164,-76 c -22,-34 -53,-51 -92,-51 -42,0 -63,17 -64,51 -7,9 -10,24 -10,44 0,9 1,19 2,30 z"
         id="path28"
         inkscape:connector-curvature="0" /></g><g
       id="bullet-char-template(10004)"
       transform="scale(4.8828125e-4,-4.8828125e-4)"><path
         d="M 285,-33 C 182,-33 111,30 74,156 52,228 41,333 41,471 c 0,78 14,145 41,201 34,71 87,106 158,106 53,0 88,-31 106,-94 l 23,-176 c 8,-64 28,-97 59,-98 l 735,706 c 11,11 33,17 66,17 42,0 63,-15 63,-46 l 0,-122 c 0,-36 -10,-64 -30,-84 L 442,47 C 390,-6 338,-33 285,-33 z"
         id="path31"
         inkscape:connector-curvature="0" /></g><g
       id="bullet-char-template(9679)"
       transform="scale(4.8828125e-4,-4.8828125e-4)"><path
         d="M 813,0 C 632,0 489,54 383,161 276,268 223,411 223,592 c 0,181 53,324 160,431 106,107 249,161 430,161 179,0 323,-54 432,-161 108,-107 162,-251 162,-431 0,-180 -54,-324 -162,-431 C 1136,54 992,0 813,0 z"
         id="path34"
         inkscape:connector-curvature="0" /></g><g
       id="bullet-char-template(8226)"
       transform="scale(4.8828125e-4,-4.8828125e-4)"><path
         d="m 346,457 c -73,0 -137,26 -191,78 -54,51 -81,114 -81,188 0,73 27,136 81,188 54,52 118,78 191,78 73,0 134,-26 185,-79 51,-51 77,-114 77,-187 0,-75 -25,-137 -76,-188 -50,-52 -112,-78 -186,-78 z"
         id="path37"
         inkscape:connector-curvature="0" /></g><g
       id="bullet-char-template(8211)"
       transform="scale(4.8828125e-4,-4.8828125e-4)"><path
         d="m -4,459 1139,0 0,147 -1139,0 0,-147 z"
         id="path40"
         inkscape:connector-curvature="0" /></g></defs><defs
     class="TextEmbeddedBitmaps"
     id="defs42" /><g
     id="g44"
     style="stroke:#ff0000;stroke-width:28.22222137;stroke-miterlimit:4;stroke-opacity:1;stroke-dasharray:none"
     transform="translate(0,-12055.559)"><g
       id="id2"
       class="Master_Slide"
       style="stroke:#ff0000;stroke-width:28.22222137;stroke-miterlimit:4;stroke-opacity:1;stroke-dasharray:none"><g
         id="bg-id2"
         class="Background"
         style="stroke:#ff0000;stroke-width:28.22222137;stroke-miterlimit:4;stroke-opacity:1;stroke-dasharray:none" /><g
         id="bo-id2"
         class="BackgroundObjects"
         style="stroke:#ff0000;stroke-width:28.22222137;stroke-miterlimit:4;stroke-opacity:1;stroke-dasharray:none" /></g></g><g
     id="g3935"
     style="stroke:#ff0000;stroke-width:28.22222137;stroke-miterlimit:4;stroke-opacity:1;stroke-dasharray:none"
     transform="translate(11.024295,136.911)"
     inkscape:export-filename="/home/se/Dokumente/programming/github/OdroidCase/g3942.png"
     inkscape:export-xdpi="92.5"
     inkscape:export-ydpi="92.5"><path
       sodipodi:nodetypes="ssccssssccsssccccccccccccccc"
       inkscape:connector-curvature="0"
       id="path61"
       transform="matrix(28.222222,0,0,28.222222,0,-6.6469412e-4)"
       d="m 64.8125,542.875 c -9.814961,0 -17.71875,7.90379 -17.71875,17.71875 l 0,30.28125 33.65625,0 0,-7.21875 c 0,-3.89764 3.160679,-7.125 7.09375,-7.125 l 233.53125,0 c 3.89764,0 7.0625,3.22736 7.0625,7.125 l 0,7.21875 33.6875,-0.0312 0,-30.25 c 0,-9.81496 -7.93922,-17.71875 -17.71875,-17.71875 z m 0.15625,9.28125 c 3.60657,1.09503 7.193306,2.25223 10.78125,3.40625 0.833333,3.70833 1.666667,7.41667 2.5,11.125 -2.782254,2.5397 -5.54684,5.09853 -8.3125,7.65625 -3.580928,-1.14302 -7.165559,-2.27432 -10.75,-3.40625 -0.835019,-3.70565 -1.651387,-7.41543 -2.46875,-11.125 2.715913,-2.58893 5.48426,-5.12099 8.25,-7.65625 z M 345.1875,552.5 c 2.56438,2.7386 5.10977,5.49479 7.65625,8.25 -1.09503,3.60657 -2.25223,7.19331 -3.40625,10.78125 -3.71053,0.82356 -7.41767,1.66219 -11.125,2.5 l -3.875,-4.15625 -3.78125,-4.15625 c 1.14963,-3.58927 2.27733,-7.18544 3.40625,-10.78125 3.70833,-0.8125 7.41667,-1.625 11.125,-2.4375 z"
       style="fill:none;stroke:#ff0000;stroke-width:1;stroke-linejoin:miter;stroke-miterlimit:4;stroke-opacity:1;stroke-dasharray:none" /><path
       sodipodi:nodetypes="ssccssssccssscccccccccccccc"
       inkscape:connector-curvature="0"
       id="path78"
       transform="matrix(28.222222,0,0,28.222222,0,-6.6469412e-4)"
       d="m 64.8125,485.21875 c -9.814961,0 -17.71875,7.90379 -17.71875,17.71875 l 0,30.28125 33.65625,0 0,-7.21875 c 0,-3.89764 3.160679,-7.125 7.09375,-7.125 l 233.53125,0 c 3.89764,0 7.0625,3.22736 7.0625,7.125 l 0,7.21875 33.6875,-0.0312 0,-30.25 c 0,-9.81496 -7.93922,-17.71875 -17.71875,-17.71875 z M 64.96875,494.5 c 3.593408,1.1365 7.187342,2.27133 10.78125,3.40625 0.833333,3.70833 1.666667,7.41667 2.5,11.125 -2.782254,2.5397 -5.54684,5.09853 -8.3125,7.65625 -3.580928,-1.14302 -7.165559,-2.27432 -10.75,-3.40625 -0.835019,-3.70565 -1.651387,-7.41543 -2.46875,-11.125 2.715913,-2.58893 5.48426,-5.12099 8.25,-7.65625 z m 280.21875,0.3125 c 2.57585,2.73848 5.11495,5.51081 7.65625,8.28125 -1.10152,3.59412 -2.25528,7.17154 -3.40625,10.75 -3.71053,0.82356 -7.41767,1.66219 -11.125,2.5 -2.58919,-2.73677 -5.12111,-5.52594 -7.65625,-8.3125 1.14302,-3.58093 2.27432,-7.16556 3.40625,-10.75 3.70351,-0.84473 7.41444,-1.65576 11.125,-2.46875 z"
       style="fill:none;stroke:#ff0000;stroke-width:1;stroke-linejoin:miter;stroke-miterlimit:4;stroke-opacity:1;stroke-dasharray:none" /><path
       sodipodi:nodetypes="ssccssssccssscccccccccccccc"
       inkscape:connector-curvature="0"
       id="path95"
       transform="matrix(28.222222,0,0,28.222222,0,-6.6469412e-4)"
       d="m 64.8125,426.8125 c -9.814961,0 -17.71875,7.90379 -17.71875,17.71875 l 0,30.3125 33.65625,0 0,-7.21875 c 0,-3.89764 3.160679,-7.125 7.09375,-7.125 l 233.53125,0 c 3.89764,0 7.0625,3.22736 7.0625,7.125 l 0,7.21875 33.6875,-0.0312 0,-30.28125 c 0,-9.81496 -7.93922,-17.71875 -17.71875,-17.71875 z m 0.15625,9.34375 c 3.60657,1.09503 7.193306,2.25223 10.78125,3.40625 0.833333,3.70833 1.666667,7.41667 2.5,11.125 -2.770833,2.54167 -5.541667,5.08333 -8.3125,7.625 -3.587437,-1.11195 -7.168539,-2.24401 -10.75,-3.375 -0.825356,-3.70779 -1.646962,-7.41642 -2.46875,-11.125 2.715913,-2.58893 5.48426,-5.12099 8.25,-7.65625 z m 280.21875,0.3125 c 2.58728,2.71743 5.12006,5.48514 7.65625,8.25 -1.09503,3.60657 -2.25223,7.19331 -3.40625,10.78125 -3.71534,0.7915 -7.41983,1.63142 -11.125,2.46875 -2.57763,-2.73685 -5.11588,-5.50994 -7.65625,-8.28125 1.1365,-3.59341 2.27133,-7.18734 3.40625,-10.78125 3.69883,-0.85616 7.41223,-1.64489 11.125,-2.4375 z"
       style="fill:none;stroke:#ff0000;stroke-width:1;stroke-linejoin:miter;stroke-miterlimit:4;stroke-opacity:1;stroke-dasharray:none" /><path
       sodipodi:nodetypes="ssccssssccssscccccccccccccc"
       inkscape:connector-curvature="0"
       id="path112"
       transform="matrix(28.222222,0,0,28.222222,0,-6.6469412e-4)"
       d="m 64.8125,369.1875 c -9.814961,0 -17.71875,7.90379 -17.71875,17.71875 l 0,30.28125 33.65625,0 0,-7.21875 c 0,-3.89764 3.160679,-7.125 7.09375,-7.125 l 233.53125,0 c 3.89764,0 7.0625,3.22736 7.0625,7.125 l 0,7.21875 33.6875,-0.0312 0,-30.25 c 0,-9.81496 -7.93922,-17.71875 -17.71875,-17.71875 z m 0.15625,9.28125 c 3.60657,1.09503 7.193306,2.25223 10.78125,3.40625 0.833333,3.70833 1.666667,7.41667 2.5,11.125 -2.782254,2.5397 -5.54684,5.09853 -8.3125,7.65625 -3.580928,-1.14302 -7.165559,-2.27432 -10.75,-3.40625 -0.835019,-3.70565 -1.651387,-7.41543 -2.46875,-11.125 2.715913,-2.58893 5.48426,-5.12099 8.25,-7.65625 z m 280.21875,0.34375 c 2.56438,2.7386 5.10977,5.49479 7.65625,8.25 -1.09503,3.60657 -2.25223,7.19331 -3.40625,10.78125 -3.70565,0.83502 -7.41543,1.65139 -11.125,2.46875 -2.60051,-2.71583 -5.12618,-5.50026 -7.65625,-8.28125 1.14963,-3.58927 2.27733,-7.18544 3.40625,-10.78125 3.70833,-0.8125 7.41667,-1.625 11.125,-2.4375 z"
       style="fill:none;stroke:#ff0000;stroke-width:1;stroke-linejoin:miter;stroke-miterlimit:4;stroke-opacity:1;stroke-dasharray:none" /><path
       transform="matrix(28.222222,0,0,28.222222,0,-6.6469412e-4)"
       sodipodi:nodetypes="sssssssssccccccccccccccssssssssscccccccccccccc"
       inkscape:connector-curvature="0"
       id="path197"
       d="m 21.90625,323.375 c -11.799213,0 -17.6875,5.85704 -17.6875,17.65625 l 0,279.65625 c 0,11.79921 5.888287,17.71875 17.6875,17.71875 l 365.375,0 C 399.08046,638.40625 405,632.48671 405,620.6875 l 0,-279.65625 C 405,329.23204 399.08046,323.375 387.28125,323.375 z M 21.1875,333 c 3.706234,0.82209 7.415714,1.62933 11.125,2.4375 1.176084,3.58095 2.289133,7.18165 3.40625,10.78125 -2.553013,2.75956 -5.104592,5.52044 -7.65625,8.28125 -3.713189,-0.8011 -7.418851,-1.63591 -11.125,-2.46875 -1.134327,-3.59409 -2.270343,-7.18765 -3.40625,-10.78125 2.515159,-2.78436 5.087408,-5.51543 7.65625,-8.25 z m 366.875,0 c 2.53978,2.76143 5.09857,5.50518 7.65625,8.25 -1.09503,3.60657 -2.25223,7.19331 -3.40625,10.78125 -3.70565,0.83502 -7.41543,1.65139 -11.125,2.46875 -2.60051,-2.71583 -5.12618,-5.50026 -7.65625,-8.28125 1.1365,-3.59341 2.27133,-7.18734 3.40625,-10.78125 3.70833,-0.8125 7.41667,-1.625 11.125,-2.4375 z m -343.125,24.03125 319.3125,0 c 3.89764,0 7.09375,3.16068 7.09375,7.09375 l 0,233.5625 c 0,3.89764 -3.19611,7.0625 -7.09375,7.0625 l -319.3125,0 c -3.897638,0 -7.0625,-3.16486 -7.0625,-7.0625 l 0,-233.5625 c 0,-3.93307 3.164862,-7.09375 7.0625,-7.09375 z m -17.875,249.875 c 2.805177,2.5149 5.557084,5.08729 8.3125,7.65625 -0.843149,3.70613 -1.671099,7.41567 -2.5,11.125 -3.585755,1.12778 -7.167756,2.26739 -10.75,3.40625 -2.759557,-2.55301 -5.52044,-5.10459 -8.28125,-7.65625 0.801101,-3.71319 1.635907,-7.41885 2.46875,-11.125 3.572581,-1.16947 7.161744,-2.28622 10.75,-3.40625 z m 355.0625,0 c 3.59412,1.10152 7.17154,2.25528 10.75,3.40625 0.83333,3.70833 1.66667,7.41667 2.5,11.125 -2.78225,2.5397 -5.54684,5.09853 -8.3125,7.65625 -3.58093,-1.14302 -7.16556,-2.27432 -10.75,-3.40625 -0.83502,-3.70565 -1.65139,-7.41543 -2.46875,-11.125 2.71583,-2.60051 5.50026,-5.12618 8.28125,-7.65625 z"
       style="fill:none;stroke:#ff0000;stroke-width:1;stroke-linejoin:miter;stroke-miterlimit:4;stroke-opacity:1;stroke-dasharray:none" /></g><g
     id="g3942"
     transform="translate(11.024295,-8936.07)"
     style="stroke:#ff0000;stroke-width:28.22222137;stroke-miterlimit:4;stroke-opacity:1;stroke-dasharray:none"
     inkscape:export-xdpi="92.5"
     inkscape:export-ydpi="92.5"><path
       style="fill:none;stroke:#ff0000;stroke-width:1;stroke-linejoin:miter;stroke-miterlimit:4;stroke-opacity:1;stroke-dasharray:none"
       d="m 64.8125,542.875 c -9.814961,0 -17.71875,7.90379 -17.71875,17.71875 l 0,30.28125 33.65625,0 0,-7.21875 c 0,-3.89764 3.160679,-7.125 7.09375,-7.125 l 233.53125,0 c 3.89764,0 7.0625,3.22736 7.0625,7.125 l 0,7.21875 33.6875,-0.0312 0,-30.25 c 0,-9.81496 -7.93922,-17.71875 -17.71875,-17.71875 z m 0.15625,9.28125 c 3.60657,1.09503 7.193306,2.25223 10.78125,3.40625 0.833333,3.70833 1.666667,7.41667 2.5,11.125 -2.782254,2.5397 -5.54684,5.09853 -8.3125,7.65625 -3.580928,-1.14302 -7.165559,-2.27432 -10.75,-3.40625 -0.835019,-3.70565 -1.651387,-7.41543 -2.46875,-11.125 2.715913,-2.58893 5.48426,-5.12099 8.25,-7.65625 z M 345.1875,552.5 c 2.56438,2.7386 5.10977,5.49479 7.65625,8.25 -1.09503,3.60657 -2.25223,7.19331 -3.40625,10.78125 -3.71053,0.82356 -7.41767,1.66219 -11.125,2.5 l -3.875,-4.15625 -3.78125,-4.15625 c 1.14963,-3.58927 2.27733,-7.18544 3.40625,-10.78125 3.70833,-0.8125 7.41667,-1.625 11.125,-2.4375 z"
       transform="matrix(28.222222,0,0,28.222222,0,-6.6469412e-4)"
       id="path3944"
       inkscape:connector-curvature="0"
       sodipodi:nodetypes="ssccssssccsssccccccccccccccc" /><path
       style="fill:none;stroke:#ff0000;stroke-width:1;stroke-linejoin:miter;stroke-miterlimit:4;stroke-opacity:1;stroke-dasharray:none"
       d="m 64.8125,485.21875 c -9.814961,0 -17.71875,7.90379 -17.71875,17.71875 l 0,30.28125 33.65625,0 0,-7.21875 c 0,-3.89764 3.160679,-7.125 7.09375,-7.125 l 233.53125,0 c 3.89764,0 7.0625,3.22736 7.0625,7.125 l 0,7.21875 33.6875,-0.0312 0,-30.25 c 0,-9.81496 -7.93922,-17.71875 -17.71875,-17.71875 z M 64.96875,494.5 c 3.593408,1.1365 7.187342,2.27133 10.78125,3.40625 0.833333,3.70833 1.666667,7.41667 2.5,11.125 -2.782254,2.5397 -5.54684,5.09853 -8.3125,7.65625 -3.580928,-1.14302 -7.165559,-2.27432 -10.75,-3.40625 -0.835019,-3.70565 -1.651387,-7.41543 -2.46875,-11.125 2.715913,-2.58893 5.48426,-5.12099 8.25,-7.65625 z m 280.21875,0.3125 c 2.57585,2.73848 5.11495,5.51081 7.65625,8.28125 -1.10152,3.59412 -2.25528,7.17154 -3.40625,10.75 -3.71053,0.82356 -7.41767,1.66219 -11.125,2.5 -2.58919,-2.73677 -5.12111,-5.52594 -7.65625,-8.3125 1.14302,-3.58093 2.27432,-7.16556 3.40625,-10.75 3.70351,-0.84473 7.41444,-1.65576 11.125,-2.46875 z"
       transform="matrix(28.222222,0,0,28.222222,0,-6.6469412e-4)"
       id="path3946"
       inkscape:connector-curvature="0"
       sodipodi:nodetypes="ssccssssccssscccccccccccccc" /><path
       style="fill:none;stroke:#ff0000;stroke-width:1;stroke-linejoin:miter;stroke-miterlimit:4;stroke-opacity:1;stroke-dasharray:none"
       d="m 64.8125,426.8125 c -9.814961,0 -17.71875,7.90379 -17.71875,17.71875 l 0,30.3125 33.65625,0 0,-7.21875 c 0,-3.89764 3.160679,-7.125 7.09375,-7.125 l 233.53125,0 c 3.89764,0 7.0625,3.22736 7.0625,7.125 l 0,7.21875 33.6875,-0.0312 0,-30.28125 c 0,-9.81496 -7.93922,-17.71875 -17.71875,-17.71875 z m 0.15625,9.34375 c 3.60657,1.09503 7.193306,2.25223 10.78125,3.40625 0.833333,3.70833 1.666667,7.41667 2.5,11.125 -2.770833,2.54167 -5.541667,5.08333 -8.3125,7.625 -3.587437,-1.11195 -7.168539,-2.24401 -10.75,-3.375 -0.825356,-3.70779 -1.646962,-7.41642 -2.46875,-11.125 2.715913,-2.58893 5.48426,-5.12099 8.25,-7.65625 z m 280.21875,0.3125 c 2.58728,2.71743 5.12006,5.48514 7.65625,8.25 -1.09503,3.60657 -2.25223,7.19331 -3.40625,10.78125 -3.71534,0.7915 -7.41983,1.63142 -11.125,2.46875 -2.57763,-2.73685 -5.11588,-5.50994 -7.65625,-8.28125 1.1365,-3.59341 2.27133,-7.18734 3.40625,-10.78125 3.69883,-0.85616 7.41223,-1.64489 11.125,-2.4375 z"
       transform="matrix(28.222222,0,0,28.222222,0,-6.6469412e-4)"
       id="path3948"
       inkscape:connector-curvature="0"
       sodipodi:nodetypes="ssccssssccssscccccccccccccc" /><path
       style="fill:none;stroke:#ff0000;stroke-width:1;stroke-linejoin:miter;stroke-miterlimit:4;stroke-opacity:1;stroke-dasharray:none"
       d="m 64.8125,369.1875 c -9.814961,0 -17.71875,7.90379 -17.71875,17.71875 l 0,30.28125 33.65625,0 0,-7.21875 c 0,-3.89764 3.160679,-7.125 7.09375,-7.125 l 233.53125,0 c 3.89764,0 7.0625,3.22736 7.0625,7.125 l 0,7.21875 33.6875,-0.0312 0,-30.25 c 0,-9.81496 -7.93922,-17.71875 -17.71875,-17.71875 z m 0.15625,9.28125 c 3.60657,1.09503 7.193306,2.25223 10.78125,3.40625 0.833333,3.70833 1.666667,7.41667 2.5,11.125 -2.782254,2.5397 -5.54684,5.09853 -8.3125,7.65625 -3.580928,-1.14302 -7.165559,-2.27432 -10.75,-3.40625 -0.835019,-3.70565 -1.651387,-7.41543 -2.46875,-11.125 2.715913,-2.58893 5.48426,-5.12099 8.25,-7.65625 z m 280.21875,0.34375 c 2.56438,2.7386 5.10977,5.49479 7.65625,8.25 -1.09503,3.60657 -2.25223,7.19331 -3.40625,10.78125 -3.70565,0.83502 -7.41543,1.65139 -11.125,2.46875 -2.60051,-2.71583 -5.12618,-5.50026 -7.65625,-8.28125 1.14963,-3.58927 2.27733,-7.18544 3.40625,-10.78125 3.70833,-0.8125 7.41667,-1.625 11.125,-2.4375 z"
       transform="matrix(28.222222,0,0,28.222222,0,-6.6469412e-4)"
       id="path3950"
       inkscape:connector-curvature="0"
       sodipodi:nodetypes="ssccssssccssscccccccccccccc" /><path
       style="fill:none;stroke:#ff0000;stroke-width:1;stroke-linejoin:miter;stroke-miterlimit:4;stroke-opacity:1;stroke-dasharray:none"
       d="m 21.90625,323.375 c -11.799213,0 -17.6875,5.85704 -17.6875,17.65625 l 0,279.65625 c 0,11.79921 5.888287,17.71875 17.6875,17.71875 l 365.375,0 C 399.08046,638.40625 405,632.48671 405,620.6875 l 0,-279.65625 C 405,329.23204 399.08046,323.375 387.28125,323.375 z M 21.1875,333 c 3.706234,0.82209 7.415714,1.62933 11.125,2.4375 1.176084,3.58095 2.289133,7.18165 3.40625,10.78125 -2.553013,2.75956 -5.104592,5.52044 -7.65625,8.28125 -3.713189,-0.8011 -7.418851,-1.63591 -11.125,-2.46875 -1.134327,-3.59409 -2.270343,-7.18765 -3.40625,-10.78125 2.515159,-2.78436 5.087408,-5.51543 7.65625,-8.25 z m 366.875,0 c 2.53978,2.76143 5.09857,5.50518 7.65625,8.25 -1.09503,3.60657 -2.25223,7.19331 -3.40625,10.78125 -3.70565,0.83502 -7.41543,1.65139 -11.125,2.46875 -2.60051,-2.71583 -5.12618,-5.50026 -7.65625,-8.28125 1.1365,-3.59341 2.27133,-7.18734 3.40625,-10.78125 3.70833,-0.8125 7.41667,-1.625 11.125,-2.4375 z m -343.125,24.03125 319.3125,0 c 3.89764,0 7.09375,3.16068 7.09375,7.09375 l 0,233.5625 c 0,3.89764 -3.19611,7.0625 -7.09375,7.0625 l -319.3125,0 c -3.897638,0 -7.0625,-3.16486 -7.0625,-7.0625 l 0,-233.5625 c 0,-3.93307 3.164862,-7.09375 7.0625,-7.09375 z m -17.875,249.875 c 2.805177,2.5149 5.557084,5.08729 8.3125,7.65625 -0.843149,3.70613 -1.671099,7.41567 -2.5,11.125 -3.585755,1.12778 -7.167756,2.26739 -10.75,3.40625 -2.759557,-2.55301 -5.52044,-5.10459 -8.28125,-7.65625 0.801101,-3.71319 1.635907,-7.41885 2.46875,-11.125 3.572581,-1.16947 7.161744,-2.28622 10.75,-3.40625 z m 355.0625,0 c 3.59412,1.10152 7.17154,2.25528 10.75,3.40625 0.83333,3.70833 1.66667,7.41667 2.5,11.125 -2.78225,2.5397 -5.54684,5.09853 -8.3125,7.65625 -3.58093,-1.14302 -7.16556,-2.27432 -10.75,-3.40625 -0.83502,-3.70565 -1.65139,-7.41543 -2.46875,-11.125 2.71583,-2.60051 5.50026,-5.12618 8.28125,-7.65625 z"
       id="path3952"
       inkscape:connector-curvature="0"
       sodipodi:nodetypes="sssssssssccccccccccccccssssssssscccccccccccccc"
       transform="matrix(28.222222,0,0,28.222222,0,-6.6469412e-4)" /></g><g
     id="g4853"><g
       id="g4831"><path
         inkscape:connector-curvature="0"
         id="path4777"
         style="font-size:1128.88891602px;font-style:normal;font-weight:normal;text-align:center;line-height:125%;letter-spacing:0px;word-spacing:0px;text-anchor:middle;fill:#ff0000;fill-opacity:1;stroke:none;font-family:Sans"
         d="m 15658.223,8364.9674 c -11.392,-6.614 -23.886,-11.3912 -37.482,-14.3316 -13.23,-3.3067 -27.929,-4.9604 -44.098,-4.9609 -57.326,5e-4 -101.423,18.7418 -132.291,56.224 -30.501,37.1156 -45.751,90.5834 -45.751,160.4036 l 0,325.217 -101.975,0 0,-617.3611 101.975,0 0,95.9115 c 21.313,-37.4821 49.058,-65.2266 83.233,-83.2335 34.175,-18.3733 75.7,-27.5602 124.575,-27.5608 6.982,6e-4 14.699,0.5518 23.151,1.6536 8.452,0.7356 17.822,2.0218 28.112,3.8585 l 0.551,104.1797" /><path
         inkscape:connector-curvature="0"
         id="path4779"
         style="font-size:1128.88891602px;font-style:normal;font-weight:normal;text-align:center;line-height:125%;letter-spacing:0px;word-spacing:0px;text-anchor:middle;fill:#ff0000;fill-opacity:1;stroke:none;font-family:Sans"
         d="m 16269.521,8553.4831 0,49.6093 -466.328,0 c 4.409,69.8209 25.356,123.105 62.838,159.8525 37.85,36.3803 90.399,54.5704 157.648,54.5703 38.952,10e-5 76.618,-4.7771 112.999,-14.3316 36.747,-9.5543 73.127,-23.8859 109.141,-42.9948 l 0,95.9115 c -36.381,15.434 -73.68,27.1933 -111.897,35.2777 -38.218,8.0845 -76.987,12.1268 -116.306,12.1268 -98.484,0 -176.573,-28.6632 -234.267,-85.9896 -57.326,-57.3263 -85.99,-134.8638 -85.989,-232.6129 0,-101.0557 27.193,-181.1656 81.579,-240.3298 54.754,-59.5307 128.433,-89.2963 221.038,-89.2969 83.049,6e-4 148.644,26.8264 196.784,80.4774 48.506,53.2847 72.759,125.8613 72.76,217.7301 m -101.424,-29.7657 c -0.735,-55.4885 -16.353,-99.7695 -46.853,-132.8428 -30.133,-33.0724 -70.188,-49.6089 -120.165,-49.6094 -56.592,5e-4 -101.975,15.9858 -136.15,47.9557 -33.808,31.971 -53.284,76.9868 -58.429,135.0478 l 361.597,-0.5513" /><path
         inkscape:connector-curvature="0"
         id="path4781"
         style="font-size:1128.88891602px;font-style:normal;font-weight:normal;text-align:center;line-height:125%;letter-spacing:0px;word-spacing:0px;text-anchor:middle;fill:#ff0000;fill-opacity:1;stroke:none;font-family:Sans"
         d="m 16842.234,8363.865 0,-334.0365 101.423,0 0,857.691 -101.423,0 0,-92.6041 c -21.315,36.7477 -48.324,64.1247 -81.029,82.131 -32.338,17.6389 -71.291,26.4584 -116.858,26.4584 -74.598,0 -135.415,-29.7656 -182.452,-89.2969 -46.67,-59.5311 -70.004,-137.8036 -70.004,-234.8177 0,-97.0135 23.334,-175.286 70.004,-234.8177 47.037,-59.5307 107.854,-89.2963 182.452,-89.2969 45.567,6e-4 84.52,9.0038 116.858,27.0095 32.705,17.6395 59.714,44.8328 81.029,81.5799 m -345.612,215.5252 c 0,74.598 15.25,133.2105 45.751,175.8377 30.867,42.2599 73.127,63.3898 126.779,63.3897 53.651,1e-4 95.911,-21.1298 126.78,-63.3897 30.867,-42.6272 46.301,-101.2397 46.302,-175.8377 0,-74.5974 -15.435,-133.0262 -46.302,-175.2865 -30.869,-42.6268 -73.129,-63.9404 -126.78,-63.941 -53.652,6e-4 -95.912,21.3142 -126.779,63.941 -30.501,42.2603 -45.752,100.6891 -45.751,175.2865" /><path
         inkscape:connector-curvature="0"
         id="path4783"
         style="font-size:1128.88891602px;font-style:normal;font-weight:normal;text-align:center;line-height:125%;letter-spacing:0px;word-spacing:0px;text-anchor:middle;fill:#ff0000;fill-opacity:1;stroke:none;font-family:Sans"
         d="m 17178.475,8747.5108 116.306,0 0,140.0087 -116.306,0 0,-140.0087 m 0,-443.7283 116.306,0 0,140.0087 -116.306,0 0,-140.0087" /><path
         inkscape:connector-curvature="0"
         id="path4785"
         style="font-size:1128.88891602px;font-style:normal;font-weight:normal;text-align:center;line-height:125%;letter-spacing:0px;word-spacing:0px;text-anchor:middle;fill:#ff0000;fill-opacity:1;stroke:none;font-family:Sans"
         d="m 18337.681,8293.8607 0,94.809 c -28.664,-15.801 -57.511,-27.5602 -86.541,-35.2778 -28.664,-8.0839 -57.694,-12.1262 -87.092,-12.1267 -65.779,5e-4 -116.858,20.9467 -153.238,62.8385 -36.38,41.5253 -54.57,99.9541 -54.57,175.2865 0,75.333 18.19,133.9455 54.57,175.8377 36.38,41.5249 87.459,62.2874 153.238,62.2873 29.398,10e-5 58.428,-3.8584 87.092,-11.5755 29.03,-8.0844 57.877,-20.0274 86.541,-35.829 l 0,93.7066 c -28.296,13.2292 -57.695,23.151 -88.195,29.7656 -30.133,6.6146 -62.287,9.9219 -96.462,9.9219 -92.972,0 -166.835,-29.2144 -221.589,-87.6433 -54.754,-58.4286 -82.131,-137.2524 -82.131,-236.4713 0,-100.6883 27.561,-179.8795 82.682,-237.5738 55.489,-57.6933 131.373,-86.5402 227.652,-86.5408 31.235,6e-4 61.736,3.3079 91.502,9.9219 29.765,6.2477 58.612,15.8021 86.541,28.6632" /><path
         inkscape:connector-curvature="0"
         id="path4787"
         style="font-size:1128.88891602px;font-style:normal;font-weight:normal;text-align:center;line-height:125%;letter-spacing:0px;word-spacing:0px;text-anchor:middle;fill:#ff0000;fill-opacity:1;stroke:none;font-family:Sans"
         d="m 18504.699,8643.8824 0,-373.724 101.424,0 0,369.8655 c 0,58.429 11.391,102.3424 34.175,131.7404 22.783,29.0308 56.959,43.5461 102.526,43.546 54.754,1e-4 97.932,-17.455 129.536,-52.3654 31.97,-34.9102 47.955,-82.4984 47.955,-142.7648 l 0,-350.0217 101.424,0 0,617.3611 -101.424,0 0,-94.809 c -24.621,37.4827 -53.284,65.4109 -85.989,83.7847 -32.339,18.0064 -70.005,27.0096 -112.999,27.0096 -70.924,0 -124.759,-22.0486 -161.507,-66.1459 -36.747,-44.0971 -55.121,-108.5892 -55.121,-193.4765 m 255.213,-388.6068 0,0" /><path
         inkscape:connector-curvature="0"
         id="path4789"
         style="font-size:1128.88891602px;font-style:normal;font-weight:normal;text-align:center;line-height:125%;letter-spacing:0px;word-spacing:0px;text-anchor:middle;fill:#ff0000;fill-opacity:1;stroke:none;font-family:Sans"
         d="m 19332.073,8094.8719 0,175.2865 208.911,0 0,78.8238 -208.911,0 0,335.1389 c 0,50.3445 6.798,82.6824 20.395,97.0139 13.964,14.3317 42.076,21.4975 84.336,21.4974 l 104.18,0 0,84.8871 -104.18,0 c -78.273,0 -132.292,-14.5153 -162.057,-43.546 -29.766,-29.3981 -44.649,-82.6821 -44.649,-159.8524 l 0,-335.1389 -74.414,0 0,-78.8238 74.414,0 0,-175.2865 101.975,0" /></g><g
       style="fill:#000000;fill-opacity:1"
       id="g4840"><path
         inkscape:connector-curvature="0"
         id="path4791"
         style="font-size:1128.88891601999989689px;font-style:normal;font-weight:normal;text-align:center;line-height:125%;letter-spacing:0px;word-spacing:0px;text-anchor:middle;fill:#000000;fill-opacity:1;stroke:none;font-family:Sans"
         d="m 13621.483,9704.9718 0,94.809 c -28.664,-15.801 -57.511,-27.5602 -86.541,-35.2777 -28.664,-8.084 -57.694,-12.1262 -87.092,-12.1268 -65.779,6e-4 -116.858,20.9467 -153.238,62.8386 -36.38,41.5253 -54.57,99.9541 -54.57,175.2864 0,75.3327 18.19,133.9457 54.57,175.8377 36.38,41.525 87.459,62.287 153.238,62.287 29.398,0 58.428,-3.858 87.092,-11.575 29.03,-8.085 57.877,-20.028 86.541,-35.829 l 0,93.706 c -28.296,13.23 -57.695,23.151 -88.195,29.766 -30.133,6.615 -62.287,9.922 -96.462,9.922 -92.972,0 -166.835,-29.214 -221.589,-87.643 -54.754,-58.429 -82.131,-137.253 -82.131,-236.4717 0,-100.6882 27.561,-179.8794 82.682,-237.5738 55.489,-57.6932 131.373,-86.5401 227.652,-86.5408 31.235,7e-4 61.736,3.308 91.502,9.9219 29.765,6.2477 58.612,15.8021 86.541,28.6632" /><path
         inkscape:connector-curvature="0"
         id="path4793"
         style="font-size:1128.88891601999989689px;font-style:normal;font-weight:normal;text-align:center;line-height:125%;letter-spacing:0px;word-spacing:0px;text-anchor:middle;fill:#000000;fill-opacity:1;stroke:none;font-family:Sans"
         d="m 14038.202,9752.3763 c -54.387,6e-4 -97.382,21.3142 -128.985,63.941 -31.603,42.2603 -47.405,100.3216 -47.404,174.184 0,73.8627 15.617,132.1077 46.853,174.7357 31.603,42.26 74.781,63.389 129.536,63.389 54.018,0 96.829,-21.313 128.433,-63.941 31.602,-42.627 47.404,-100.688 47.404,-174.1837 0,-73.1275 -15.802,-131.005 -47.404,-173.6328 -31.604,-42.9943 -74.415,-64.4916 -128.433,-64.4922 m 0,-85.9896 c 88.194,7e-4 157.463,28.6638 207.808,85.9896 50.343,57.3269 75.516,136.7018 75.516,238.125 0,101.0567 -25.173,180.4317 -75.516,238.1247 -50.345,57.327 -119.614,85.99 -207.808,85.99 -88.563,0 -158.016,-28.663 -208.36,-85.99 -49.977,-57.693 -74.965,-137.068 -74.965,-238.1247 0,-101.4232 24.988,-180.7981 74.965,-238.125 50.344,-57.3258 119.797,-85.9889 208.36,-85.9896" /><path
         inkscape:connector-curvature="0"
         id="path4795"
         style="font-size:1128.88891601999989689px;font-style:normal;font-weight:normal;text-align:center;line-height:125%;letter-spacing:0px;word-spacing:0px;text-anchor:middle;fill:#000000;fill-opacity:1;stroke:none;font-family:Sans"
         d="m 14489.096,9440.9397 101.423,0 0,857.6913 -101.423,0 0,-857.6913" /><path
         inkscape:connector-curvature="0"
         id="path4797"
         style="font-size:1128.88891601999989689px;font-style:normal;font-weight:normal;text-align:center;line-height:125%;letter-spacing:0px;word-spacing:0px;text-anchor:middle;fill:#000000;fill-opacity:1;stroke:none;font-family:Sans"
         d="m 15041.413,9752.3763 c -54.387,6e-4 -97.381,21.3142 -128.984,63.941 -31.603,42.2603 -47.405,100.3216 -47.405,174.184 0,73.8627 15.618,132.1077 46.854,174.7357 31.603,42.26 74.781,63.389 129.535,63.389 54.019,0 96.83,-21.313 128.434,-63.941 31.602,-42.627 47.403,-100.688 47.404,-174.1837 0,-73.1275 -15.802,-131.005 -47.404,-173.6328 -31.604,-42.9943 -74.415,-64.4916 -128.434,-64.4922 m 0,-85.9896 c 88.194,7e-4 157.464,28.6638 207.809,85.9896 50.343,57.3269 75.515,136.7018 75.516,238.125 0,101.0567 -25.173,180.4317 -75.516,238.1247 -50.345,57.327 -119.615,85.99 -207.809,85.99 -88.562,0 -158.015,-28.663 -208.359,-85.99 -49.977,-57.693 -74.965,-137.068 -74.965,-238.1247 0,-101.4232 24.988,-180.7981 74.965,-238.125 50.344,-57.3258 119.797,-85.9889 208.359,-85.9896" /><path
         inkscape:connector-curvature="0"
         id="path4799"
         style="font-size:1128.88891601999989689px;font-style:normal;font-weight:normal;text-align:center;line-height:125%;letter-spacing:0px;word-spacing:0px;text-anchor:middle;fill:#000000;fill-opacity:1;stroke:none;font-family:Sans"
         d="m 15481.834,10054.994 0,-373.7244 101.424,0 0,369.8654 c 0,58.429 11.392,102.342 34.175,131.74 22.784,29.031 56.959,43.547 102.526,43.546 54.754,0 97.933,-17.455 129.536,-52.365 31.97,-34.91 47.955,-82.498 47.956,-142.765 l 0,-350.0214 101.423,0 0,617.3614 -101.423,0 0,-94.809 c -24.622,37.482 -53.285,65.411 -85.99,83.784 -32.338,18.007 -70.005,27.01 -112.999,27.01 -70.923,0 -124.759,-22.049 -161.506,-66.146 -36.748,-44.097 -55.122,-108.589 -55.122,-193.476 m 255.213,-388.6073 0,0" /><path
         inkscape:connector-curvature="0"
         id="path4801"
         style="font-size:1128.88891601999989689px;font-style:normal;font-weight:normal;text-align:center;line-height:125%;letter-spacing:0px;word-spacing:0px;text-anchor:middle;fill:#000000;fill-opacity:1;stroke:none;font-family:Sans"
         d="m 16566.626,9776.0786 c -11.392,-6.6141 -23.886,-11.3913 -37.483,-14.3316 -13.229,-3.3068 -27.928,-4.9604 -44.097,-4.961 -57.327,6e-4 -101.424,18.7419 -132.291,56.224 -30.501,37.1156 -45.752,90.5834 -45.751,160.4037 l 0,325.2173 -101.975,0 0,-617.3614 101.975,0 0,95.9114 c 21.313,-37.4821 49.058,-65.2265 83.233,-83.2335 34.175,-18.3732 75.7,-27.5601 124.575,-27.5608 6.981,7e-4 14.698,0.5519 23.151,1.6537 8.451,0.7356 17.822,2.0217 28.112,3.8585 l 0.551,104.1797" /><path
         inkscape:connector-curvature="0"
         id="path4803"
         style="font-size:1128.88891601999989689px;font-style:normal;font-weight:normal;text-align:center;line-height:125%;letter-spacing:0px;word-spacing:0px;text-anchor:middle;fill:#000000;fill-opacity:1;stroke:none;font-family:Sans"
         d="m 17143.749,10204.924 388.606,0 0,93.707 -522.552,0 0,-93.707 c 42.26,-43.73 99.77,-102.342 172.531,-175.838 73.127,-73.8621 119.062,-121.4503 137.803,-142.7644 35.645,-40.0545 60.45,-73.8623 74.415,-101.4236 14.331,-27.9277 21.496,-55.3047 21.497,-82.1311 0,-43.7291 -15.435,-79.3743 -46.302,-106.9357 -30.501,-27.5601 -70.372,-41.3404 -119.614,-41.3412 -34.91,8e-4 -71.842,6.0641 -110.794,18.1901 -38.585,12.1275 -79.927,30.5013 -124.024,55.1216 l 0,-112.448 c 44.832,-18.0055 86.725,-31.6021 125.677,-40.7899 38.953,-9.1861 74.598,-13.7795 106.936,-13.7804 85.254,9e-4 153.238,21.3145 203.95,63.941 50.711,42.6281 76.067,99.5869 76.068,170.8767 0,33.8085 -6.432,65.9627 -19.293,96.4627 -12.495,30.1336 -35.462,65.7788 -68.902,106.9358 -9.187,10.6572 -38.402,41.5252 -87.643,92.6042 -49.242,50.7122 -118.695,121.8192 -208.359,213.3202" /><path
         inkscape:connector-curvature="0"
         id="path4805"
         style="font-size:1128.88891601999989689px;font-style:normal;font-weight:normal;text-align:center;line-height:125%;letter-spacing:0px;word-spacing:0px;text-anchor:middle;fill:#000000;fill-opacity:1;stroke:none;font-family:Sans"
         d="m 18060.42,9944.1992 297.105,0 0,90.3998 -297.105,0 0,-90.3998" /><path
         inkscape:connector-curvature="0"
         id="path4807"
         style="font-size:1128.88891601999989689px;font-style:normal;font-weight:normal;text-align:center;line-height:125%;letter-spacing:0px;word-spacing:0px;text-anchor:middle;fill:#000000;fill-opacity:1;stroke:none;font-family:Sans"
         d="m 19230.65,9854.9024 c 53.283,11.3922 94.808,35.0944 124.574,71.1067 30.133,36.0131 45.199,80.4779 45.2,133.3939 0,81.213 -27.929,144.051 -83.785,188.516 -55.857,44.465 -135.232,66.697 -238.125,66.697 -34.543,0 -70.188,-3.491 -106.936,-10.473 -36.38,-6.615 -74.046,-16.72 -112.999,-30.317 l 0,-107.487 c 30.868,18.006 64.676,31.603 101.424,40.79 36.747,9.187 75.149,13.78 115.204,13.78 69.82,0 122.92,-13.78 159.301,-41.341 36.747,-27.56 55.121,-67.615 55.122,-120.165 0,-48.506 -17.089,-86.3565 -51.263,-113.5501 -33.809,-27.5604 -81.029,-41.3408 -141.663,-41.3412 l -95.911,0 0,-91.5017 100.321,0 c 54.754,5e-4 96.646,-10.8401 125.677,-32.5217 29.03,-22.0481 43.546,-53.651 43.546,-94.809 0,-42.2592 -15.067,-74.5971 -45.2,-97.0139 -29.766,-22.7829 -72.577,-34.1746 -128.433,-34.1754 -30.501,8e-4 -63.206,3.3081 -98.116,9.9219 -34.911,6.6153 -73.312,16.9047 -115.204,30.8681 l 0,-99.2188 c 42.26,-11.7584 81.763,-20.5779 118.511,-26.4583 37.115,-5.8788 72.025,-8.8186 104.731,-8.8195 84.519,9e-4 151.4,19.2934 200.643,57.8776 49.241,38.2184 73.862,90.0326 73.862,155.4428 0,45.5677 -13.046,84.1527 -39.136,115.7552 -26.091,31.236 -63.206,52.9171 -111.345,65.0434" /><path
         inkscape:connector-curvature="0"
         id="path4809"
         style="font-size:1128.88891601999989689px;font-style:normal;font-weight:normal;text-align:center;line-height:125%;letter-spacing:0px;word-spacing:0px;text-anchor:middle;fill:#000000;fill-opacity:1;stroke:none;font-family:Sans"
         d="m 20078.419,9799.7808 c 25.355,-45.5665 55.672,-79.1906 90.95,-100.8724 35.277,-21.6805 76.802,-32.521 124.575,-32.5217 64.307,7e-4 113.917,22.6005 148.828,67.7995 34.909,44.8327 52.364,108.7736 52.365,191.8229 l 0,372.6219 -101.974,0 0,-369.3146 c 0,-59.1633 -10.474,-103.0768 -31.42,-131.7404 -20.947,-28.6627 -52.917,-42.9943 -95.911,-42.9948 -52.55,5e-4 -94.075,17.4557 -124.575,52.3654 -30.501,34.9108 -45.751,82.499 -45.751,142.7648 l 0,348.9196 -101.975,0 0,-369.3146 c 0,-59.5308 -10.473,-103.4442 -31.419,-131.7404 -20.946,-28.6627 -53.284,-42.9943 -97.014,-42.9948 -51.814,5e-4 -92.972,17.6394 -123.472,52.9167 -30.501,34.9107 -45.751,82.3152 -45.751,142.2135 l 0,348.9196 -101.975,0 0,-617.3614 101.975,0 0,95.9114 c 23.151,-37.8495 50.896,-65.7778 83.234,-83.7847 32.337,-18.0058 70.739,-27.0089 115.204,-27.0096 44.831,7e-4 82.865,11.3924 114.101,34.1754 31.603,22.7841 54.938,55.857 70.005,99.2187" /><path
         inkscape:connector-curvature="0"
         id="path4811"
         style="font-size:1128.88891601999989689px;font-style:normal;font-weight:normal;text-align:center;line-height:125%;letter-spacing:0px;word-spacing:0px;text-anchor:middle;fill:#000000;fill-opacity:1;stroke:none;font-family:Sans"
         d="m 21178.644,9799.7808 c 25.356,-45.5665 55.672,-79.1906 90.951,-100.8724 35.277,-21.6805 76.802,-32.521 124.574,-32.5217 64.308,7e-4 113.917,22.6005 148.829,67.7995 34.909,44.8327 52.364,108.7736 52.365,191.8229 l 0,372.6219 -101.975,0 0,-369.3146 c 0,-59.1633 -10.474,-103.0768 -31.419,-131.7404 -20.947,-28.6627 -52.918,-42.9943 -95.912,-42.9948 -52.549,5e-4 -94.074,17.4557 -124.574,52.3654 -30.501,34.9108 -45.752,82.499 -45.751,142.7648 l 0,348.9196 -101.975,0 0,-369.3146 c 0,-59.5308 -10.474,-103.4442 -31.419,-131.7404 -20.947,-28.6627 -53.285,-42.9943 -97.014,-42.9948 -51.815,5e-4 -92.972,17.6394 -123.472,52.9167 -30.501,34.9107 -45.751,82.3152 -45.751,142.2135 l 0,348.9196 -101.975,0 0,-617.3614 101.975,0 0,95.9114 c 23.151,-37.8495 50.895,-65.7778 83.233,-83.7847 32.338,-18.0058 70.739,-27.0089 115.204,-27.0096 44.832,7e-4 82.866,11.3924 114.102,34.1754 31.602,22.7841 54.937,55.857 70.004,99.2187" /></g></g></svg>