<?xml version="1.0" encoding="UTF-8" standalone="no"?>
<svg
   xmlns:ooo="http://xml.openoffice.org/svg/export"
   xmlns:dc="http://purl.org/dc/elements/1.1/"
   xmlns:cc="http://creativecommons.org/ns#"
   xmlns:rdf="http://www.w3.org/1999/02/22-rdf-syntax-ns#"
   xmlns:svg="http://www.w3.org/2000/svg"
   xmlns="http://www.w3.org/2000/svg"
   xmlns:sodipodi="http://sodipodi.sourceforge.net/DTD/sodipodi-0.dtd"
   xmlns:inkscape="http://www.inkscape.org/namespaces/inkscape"
   version="1.2"
   width="868.11023"
   height="690.94489"
   viewBox="0 0 24500 19499.999"
   preserveAspectRatio="xMidYMid"
   clip-path="url(#presentation_clip_path)"
   xml:space="preserve"
   id="svg2"
   inkscape:version="0.48.4 r9939"
   sodipodi:docname="OdroidCase-Standard ohne Blende.pdf"
   style="fill-rule:evenodd;stroke-width:28.22200012;stroke-linejoin:round"><metadata
     id="metadata370"><rdf:RDF><cc:Work
         rdf:about=""><dc:format>image/svg+xml</dc:format><dc:type
           rdf:resource="http://purl.org/dc/dcmitype/StillImage" /><dc:title></dc:title></cc:Work></rdf:RDF></metadata><sodipodi:namedview
     pagecolor="#ffffff"
     bordercolor="#666666"
     borderopacity="1"
     objecttolerance="10"
     gridtolerance="10"
     guidetolerance="10"
     inkscape:pageopacity="0"
     inkscape:pageshadow="2"
     inkscape:window-width="1920"
     inkscape:window-height="1060"
     id="namedview368"
     showgrid="false"
     inkscape:document-units="mm"
     units="mm"
     inkscape:snap-bbox="true"
     inkscape:bbox-nodes="true"
     inkscape:bbox-paths="true"
     inkscape:snap-bbox-edge-midpoints="true"
     inkscape:snap-bbox-midpoints="true"
     inkscape:snap-nodes="true"
     inkscape:object-paths="true"
     inkscape:snap-intersection-paths="true"
     inkscape:object-nodes="true"
     inkscape:snap-smooth-nodes="true"
     inkscape:snap-midpoints="true"
     inkscape:snap-object-midpoints="true"
     inkscape:snap-center="true"
     inkscape:zoom="0.58946907"
     inkscape:cx="1178.5402"
     inkscape:cy="420.60257"
     inkscape:window-x="1913"
     inkscape:window-y="-10"
     inkscape:window-maximized="1"
     inkscape:current-layer="svg2" /><defs
     class="ClipPathGroup"
     id="defs4"><clipPath
       id="presentation_clip_path"
       clipPathUnits="userSpaceOnUse"><rect
         x="0"
         y="0"
         width="60900"
         height="30400"
         id="rect7" /></clipPath></defs><defs
     class="TextShapeIndex"
     id="defs9"><g
       ooo:slide="id1"
       ooo:id-list="id3 id4 id5 id6 id7 id8 id9 id10 id11 id12 id13 id14 id15 id16 id17 id18 id19 id20 id21 id22 id23 id24 id25 id26 id27 id28 id29 id30 id31 id32 id33 id34 id35 id36 id37 id38 id39 id40 id41 id42 id43 id44 id45 id46 id47 id48 id49 id50 id51 id52 id53 id54 id55 id56 id57 id58 id59 id60"
       id="g11" /></defs><defs
     class="EmbeddedBulletChars"
     id="defs13"><g
       id="bullet-char-template(57356)"
       transform="scale(4.8828125e-4,-4.8828125e-4)"><path
         d="M 580,1141 1163,571 580,0 -4,571 580,1141 z"
         id="path16"
         inkscape:connector-curvature="0" /></g><g
       id="bullet-char-template(57354)"
       transform="scale(4.8828125e-4,-4.8828125e-4)"><path
         d="m 8,1128 1129,0 L 1137,0 8,0 8,1128 z"
         id="path19"
         inkscape:connector-curvature="0" /></g><g
       id="bullet-char-template(10146)"
       transform="scale(4.8828125e-4,-4.8828125e-4)"><path
         d="M 174,0 602,739 174,1481 1456,739 174,0 z m 1184,739 -1049,607 350,-607 699,0 z"
         id="path22"
         inkscape:connector-curvature="0" /></g><g
       id="bullet-char-template(10132)"
       transform="scale(4.8828125e-4,-4.8828125e-4)"><path
         d="M 2015,739 1276,0 717,0 l 543,543 -1086,0 0,393 1086,0 -543,545 557,0 741,-742 z"
         id="path25"
         inkscape:connector-curvature="0" /></g><g
       id="bullet-char-template(10007)"
       transform="scale(4.8828125e-4,-4.8828125e-4)"><path
         d="m 0,-2 c -7,16 -16,29 -25,39 l 381,530 c -94,256 -141,385 -141,387 0,25 13,38 40,38 9,0 21,-2 34,-5 21,4 42,12 65,25 l 27,-13 111,-251 280,301 64,-25 24,25 c 21,-10 41,-24 62,-43 C 886,937 835,863 770,784 769,783 710,716 594,584 L 774,223 c 0,-27 -21,-55 -63,-84 l 16,-20 C 717,90 699,76 672,76 641,76 570,178 457,381 L 164,-76 c -22,-34 -53,-51 -92,-51 -42,0 -63,17 -64,51 -7,9 -10,24 -10,44 0,9 1,19 2,30 z"
         id="path28"
         inkscape:connector-curvature="0" /></g><g
       id="bullet-char-template(10004)"
       transform="scale(4.8828125e-4,-4.8828125e-4)"><path
         d="M 285,-33 C 182,-33 111,30 74,156 52,228 41,333 41,471 c 0,78 14,145 41,201 34,71 87,106 158,106 53,0 88,-31 106,-94 l 23,-176 c 8,-64 28,-97 59,-98 l 735,706 c 11,11 33,17 66,17 42,0 63,-15 63,-46 l 0,-122 c 0,-36 -10,-64 -30,-84 L 442,47 C 390,-6 338,-33 285,-33 z"
         id="path31"
         inkscape:connector-curvature="0" /></g><g
       id="bullet-char-template(9679)"
       transform="scale(4.8828125e-4,-4.8828125e-4)"><path
         d="M 813,0 C 632,0 489,54 383,161 276,268 223,411 223,592 c 0,181 53,324 160,431 106,107 249,161 430,161 179,0 323,-54 432,-161 108,-107 162,-251 162,-431 0,-180 -54,-324 -162,-431 C 1136,54 992,0 813,0 z"
         id="path34"
         inkscape:connector-curvature="0" /></g><g
       id="bullet-char-template(8226)"
       transform="scale(4.8828125e-4,-4.8828125e-4)"><path
         d="m 346,457 c -73,0 -137,26 -191,78 -54,51 -81,114 -81,188 0,73 27,136 81,188 54,52 118,78 191,78 73,0 134,-26 185,-79 51,-51 77,-114 77,-187 0,-75 -25,-137 -76,-188 -50,-52 -112,-78 -186,-78 z"
         id="path37"
         inkscape:connector-curvature="0" /></g><g
       id="bullet-char-template(8211)"
       transform="scale(4.8828125e-4,-4.8828125e-4)"><path
         d="m -4,459 1139,0 0,147 -1139,0 0,-147 z"
         id="path40"
         inkscape:connector-curvature="0" /></g></defs><defs
     class="TextEmbeddedBitmaps"
     id="defs42" /><g
     id="bg-id2"
     class="Background"
     style="stroke:#ff0000;stroke-width:28.22222137;stroke-miterlimit:4;stroke-opacity:1;stroke-dasharray:none"
     transform="translate(0,-10900.004)" /><g
     id="bo-id2"
     class="BackgroundObjects"
     style="stroke:#ff0000;stroke-width:28.22222137;stroke-miterlimit:4;stroke-opacity:1;stroke-dasharray:none"
     transform="translate(0,-10900.004)" /><path
     style="fill:none;stroke:#ff0000;stroke-width:28.22222137;stroke-linejoin:miter;stroke-miterlimit:4;stroke-opacity:1;stroke-dasharray:none"
     d="M 969.66676,398.139 C 621.66675,398.139 448.4376,572.25 448.4376,920.25 l 0,8247.0621 c 0,348 173.22915,522.111 521.22916,522.111 l 10667.11724,0 c 348,0 522.111,-174.111 522.111,-522.111 l 0,-8247.0621 c 0,-348 -174.111,-522.111 -522.111,-522.111 l -10667.11724,0 z M 11336.041,996.979 c 11,0 19.868,0.646 30.868,2.646 16,3 30.098,8.757 44.098,16.757 23.999,14 40.68,31.562 54.68,55.562 13,24 20.285,46.966 20.285,74.966 0,12 -0.528,21.6321 -3.528,32.6321 -4,16 -8.757,28.333 -16.757,42.333 -14,24 -30.681,40.681 -54.68,54.681 -24,13 -47.966,20.284 -74.966,20.284 -28,0 -50.965,-7.284 -74.965,-20.284 -24,-14 -40.681,-30.681 -54.681,-54.681 -14,-24 -20.284,-47.965 -20.284,-74.9651 0,-28 6.284,-50.966 20.284,-74.966 14,-24 30.681,-41.562 54.681,-55.562 24,-14 46.965,-19.403 74.965,-19.403 z m -10155.5895,3.528 c 11,0 19.868,0.646 30.868,2.646 16,3 30.0973,9.639 44.0973,17.639 24,14 40.6805,30.68 54.6805,54.68 13,24 20.2847,46.965 20.2847,74.965 0,12.0001 -1.4097,22.5141 -4.4097,33.5141 -4,16 -7.875,27.452 -15.875,41.452 -14,24 -30.6805,41.562 -54.6805,55.562 -24.0001,13 -47.9653,19.403 -74.9653,19.403 -28,0 -50.9653,-6.403 -74.9653,-19.403 -24,-14 -41.5625,-31.562 -55.5625,-55.562 -14,-24 -19.4028,-47.966 -19.4028,-74.9661 0,-28 5.4028,-50.965 19.4028,-74.965 14,-24 31.5625,-40.68 55.5625,-54.68 24,-14 46.9653,-20.285 74.9653,-20.285 z m 2535.5902,3025.0691 552.0972,0 c 171.0002,0 360.8333,72.681 486.8334,181.681 l 48.5069,44.979 c 139.0001,139 230.1875,329.931 230.1875,530.931 l 0,485.951 c 0,56 -9.8126,124.333 -23.8125,169.333 -42.9999,152 -95.0208,250.361 -209.0208,363.361 -58.0001,58 -121.7916,105.993 -195.7917,141.993 -94,48.001 -212.9584,83.785 -343.9583,83.785 l -545.0417,0 0,-478.896 545.0417,0 c 82.9998,0 161.7291,-45.312 203.7291,-87.312 26,-25 43.8543,-50.667 60.8542,-84.667 13,-26 29.1042,-72.125 29.1042,-111.125 l 0,-478.896 c 0,-42 -16.7499,-86.416 -31.75,-116.416 -51.0001,-104 -157.9305,-166.688 -276.9306,-166.688 l -530.0486,0 0,-478.014 z m 1603.375,0 642.9375,0 c 94,0 198.8126,29.674 277.8125,69.674 94.9999,47 178.7708,116.437 240.7708,198.437 132.0001,177 178.4652,370.723 138.4653,599.723 -7.9999,47 -22.0416,86 -37.0417,127 -23.9999,66 -49.4306,103.75 -86.4305,158.75 -17,25 -27.7501,31.388 -31.75,49.389 52.9999,80 75.0623,92.257 119.0625,207.256 31.0001,79 51.1528,169.049 51.1528,276.049 l 0,315.736 -468.3125,0 c -16.0001,0 -12.3473,-20.042 -12.3473,-37.041 0.9991,-69 4.3542,-300.139 -2.6444,-335.139 -15.0001,-73 -58.8264,-136.452 -120.8264,-168.452 -19,-9 -49.8472,-21.166 -75.8472,-21.166 l -635,0 0,-478.014 630.5903,0 c 111,0 205.493,-114.542 205.493,-227.542 l 0,-29.104 c 0,-114 -91.0765,-227.542 -216.0764,-227.542 l -620.0069,0 0,-478.014 z m 3466.9236,0 479.7778,0 0,2002.014 -479.7778,0 0,-2002.014 z m 755.8264,0 555.6253,0 c 212,0 449.319,112.167 580.319,275.167 l 39.687,52.035 c 80,108 146.403,270.923 146.403,418.923 l 0,513.292 c 0,52 -14.458,122.278 -26.458,162.278 -46,158 -101.785,249.069 -210.785,358.069 -115,115 -307.222,222.25 -536.222,222.25 l -548.5693,0 0,-478.896 555.6253,0 c 40,0 93.708,-18.513 121.708,-33.514 47,-23.999 87.417,-61.833 116.416,-105.833 32,-48 49.389,-108.743 49.389,-173.743 l 0,-423.333 c 0,-173 -135.562,-308.681 -309.562,-308.681 l -533.5763,0 0,-478.014 z m -6998.2292,7.056 0,488.597 c -24,6 -63.1388,33.743 -81.1388,46.743 -25,19 -43.6181,38.382 -62.6181,64.382 -40,56 -57.3264,120.91 -57.3264,194.91 l 0,396.875 c 0,74 17.3264,138.791 57.3264,195.791 32,44.001 92.7569,96.362 143.7569,109.362 l 0,490.361 c -41,0 -115.1666,-23.396 -148.1666,-34.396 -150,-49 -271.5347,-139.938 -369.5347,-261.938 -99,-125 -162.2778,-304.666 -162.2778,-465.666 l 0,-470.959 c 0,-164 79.0903,-374.951 186.0903,-485.951 9,-10 11.2847,-15.576 20.2847,-25.576 75,-77.001 116.7292,-104.987 203.7292,-156.987 l 124.3541,-53.798 c 36,-10 108.5208,-31.75 145.5208,-31.75 z m 192.2639,0 c 40,0 114.6945,19.75 151.6945,31.75 66,23 127.2083,51.958 185.2083,89.958 33,21 103.8821,77.188 127.882,103.188 120.9999,126 225.7777,312.333 225.7777,550.333 l 0,434.799 c 0,112 -27.7362,227.034 -61.7361,306.034 -29.9999,68 -61.0695,117.625 -104.0694,174.625 -26.9999,37 -78.0071,90.299 -112.007,117.299 -110,88 -202.7847,134.569 -337.7847,167.569 -16,3 -64.9653,9.111 -74.9653,14.112 l 0,-489.48 c 24,-6 63.1389,-28.451 81.1389,-41.451 24,-17 41.8542,-35.208 60.8542,-58.208 32,-40 65.2639,-105.507 65.2639,-175.507 l 0,-471.841 c 0,-98.999 -81.2153,-213.236 -170.2153,-252.236 -24,-11 -37.0417,-8.93 -37.0417,-22.93 l 0,-478.014 z m 4863.0417,0 0,488.597 c -23.9999,6 -63.1388,33.743 -81.1389,46.743 -25.0001,19 -43.618,38.382 -62.6181,64.382 -18.0001,25 -31.4514,51.785 -41.4514,83.785 -9.9999,31 -15.875,70.125 -15.875,111.125 l 0,396.875 c 0,103 37.0626,198.173 119.0625,260.173 18.0002,13 57.0208,38.98 82.0209,44.98 l 0,490.361 c -77.0001,0 -206.4027,-54.195 -273.4028,-88.195 -65.9999,-33 -152.9653,-104.868 -201.9653,-157.868 -9.0001,-9 -12.9306,-16.458 -22.9305,-26.458 -26,-28 -72.9584,-98.41 -89.9584,-131.41 -55.9999,-115 -91.7222,-223.069 -91.7222,-358.069 l 0,-470.959 c 0,-161 69.8057,-345.138 165.8056,-462.139 l 39.6875,-49.388 c 108.9998,-113 244.6389,-194.306 398.6388,-229.306 20,-5 55.8473,-13.229 75.8473,-13.229 z m 192.2639,0 c 82.9998,0 239.5626,58.951 309.5624,104.951 10,7 18.3403,10.757 27.3403,16.757 33,21 103.8821,77.188 127.882,103.188 120.9999,126 225.7777,312.333 225.7777,550.333 l 0,434.799 c 0,187 -61.8055,343.659 -165.8055,480.659 -26.9999,37 -78.0071,90.299 -112.007,117.299 -81,65 -167.4653,117.167 -265.4652,148.167 -25.0001,8 -47.3194,13.402 -72.3195,19.402 -16,3 -64.9653,9.111 -74.9652,14.112 l 0,-489.48 c 103.0001,-24 206.375,-153.166 206.375,-275.166 l 0,-471.841 c 0,-88 -61.1737,-181.069 -133.1737,-231.069 -45.9999,-32 -73.2013,-27.097 -73.2013,-44.097 l 0,-478.014 z m 3544.534,4702.528 c 11,0 19.868,1.526 30.868,3.527 16,3 30.098,8.757 44.098,16.757 23.999,14 40.68,30.681 54.68,54.681 13,24 20.285,47.847 20.285,75.847 0,12 -0.528,21.632 -3.528,32.632 -4,16 -8.757,28.333 -16.757,42.333 -14,24 -30.681,40.681 -54.68,54.681 -24,13 -47.966,20.285 -74.966,20.285 -28,0 -50.965,-7.285 -74.965,-20.285 -24,-14 -40.681,-30.681 -54.681,-54.681 -14,-24 -20.284,-47.965 -20.284,-74.965 0,-28 6.284,-51.847 20.284,-75.847 14,-24 30.681,-40.681 54.681,-54.681 24,-14 46.965,-20.284 74.965,-20.284 z m -10155.5895,5.291 c 11,0 19.868,1.527 30.868,3.528 16,3 30.0973,8.757 44.0973,16.757 24,14 40.6805,30.681 54.6805,54.681 13,23.999 20.2847,46.965 20.2847,74.965 0,12 -1.4097,22.514 -4.4097,33.514 -4,16 -7.875,27.451 -15.875,41.451 -14,24 -30.6805,41.563 -54.6805,55.563 -24,13 -47.9653,19.402 -74.9653,19.402 -28,0 -50.9653,-6.402 -74.9653,-19.402 -24,-14 -41.5625,-31.563 -55.5625,-55.563 -14,-24 -19.4028,-47.965 -19.4028,-74.965 0,-28 5.4028,-50.966 19.4028,-74.965 14,-24 31.5625,-40.681 55.5625,-54.681 24,-14 46.9653,-20.285 74.9653,-20.285 z"
     id="path274"
     inkscape:connector-curvature="0"
     inkscape:export-filename="/home/se/Dokumente/programming/github/OdroidCase/g5320.png"
     inkscape:export-xdpi="92.5"
     inkscape:export-ydpi="92.5" /><g
     id="g5237"
     transform="translate(324.08343,260.556)"
     inkscape:export-filename="/home/se/Dokumente/programming/github/OdroidCase/g5320.png"
     inkscape:export-xdpi="92.5"
     inkscape:export-ydpi="92.5"><path
       sodipodi:nodetypes="ssssssssscccccccccccccccsssscsscccccccccccccccc"
       inkscape:connector-curvature="0"
       id="path163"
       transform="matrix(28.222222,0,0,28.222222,0,-6.6469412e-4)"
       d="m 443.84375,4.53125 c -9.81496,0 -17.71875,7.903789 -17.71875,17.71875 l 0,293.78125 c 0,9.77953 7.90379,17.71875 17.71875,17.71875 l 379.1875,0 c 9.81496,0 17.71875,-7.93922 17.71875,-17.71875 l 0,-293.78125 c 0,-9.814961 -7.90379,-17.71875 -17.71875,-17.71875 z M 816.875,21.125 c 2.56264,2.74021 5.10892,5.495575 7.65625,8.25 -1.14963,3.589265 -2.27733,7.185438 -3.40625,10.78125 -3.71534,0.791495 -7.41983,1.631422 -11.125,2.46875 -2.57763,-2.736847 -5.11588,-5.50994 -7.65625,-8.28125 1.1365,-3.593408 2.27133,-7.187342 3.40625,-10.78125 3.69883,-0.856163 7.41223,-1.644887 11.125,-2.4375 z M 450.15625,21.25 c 3.70888,0.820454 7.41691,1.64473 11.125,2.46875 1.13811,3.579222 2.25592,7.164801 3.375,10.75 -2.54167,2.770833 -5.08333,5.541667 -7.625,8.3125 -3.71984,-0.828455 -7.438,-1.664438 -11.15625,-2.5 -1.13811,-3.579222 -2.25592,-7.164801 -3.375,-10.75 2.50368,-2.805335 5.0821,-5.541021 7.65625,-8.28125 z m 23.75,23.90625 319.1875,0 c 3.93307,0 7.09375,3.133612 7.09375,7.03125 l 0,233.625 c 0,3.89764 -3.16068,7.03125 -7.09375,7.03125 l -320.59375,0 c -3.22441,-0.6378 -5.625,-3.50468 -5.625,-6.90625 l 0,-233.5625 c 0,-3.933071 3.13361,-7.09375 7.03125,-7.09375 z m 337,249.90625 c 3.59987,1.10549 7.1903,2.24101 10.78125,3.375 0.82846,3.71984 1.66444,7.438 2.5,11.15625 -2.77083,2.54167 -5.54167,5.08333 -8.3125,7.625 -3.58744,-1.11195 -7.16854,-2.24401 -10.75,-3.375 -0.82536,-3.70779 -1.64696,-7.41642 -2.46875,-11.125 2.71591,-2.58893 5.48426,-5.12099 8.25,-7.65625 z m -354.84375,0.125 c 2.80533,2.50368 5.54102,5.0821 8.28125,7.65625 -0.81075,3.71104 -1.64034,7.41788 -2.46875,11.125 -3.58095,1.17608 -7.18165,2.28913 -10.78125,3.40625 -2.78261,-2.51705 -5.5148,-5.08809 -8.25,-7.65625 0.8125,-3.70833 1.625,-7.41667 2.4375,-11.125 3.59409,-1.13433 7.18765,-2.27034 10.78125,-3.40625 z"
       style="fill:none;stroke:#ff0000;stroke-width:1;stroke-linejoin:miter;stroke-miterlimit:4;stroke-opacity:1;stroke-dasharray:none" /><path
       sodipodi:nodetypes="ccssssccssscsccccccccccccccc"
       inkscape:connector-curvature="0"
       id="path129"
       d="m 22521.333,6086.5998 -1150.056,0.8805 0,201.9653 c 0,111 -88.319,201.0834 -199.319,201.0834 l -6591.653,0 c -110,0 -199.319,-90.0834 -199.319,-201.0834 l 0,-201.9653 -1149.174,0 0,1053.0417 c 0,277.9999 223.181,500.9444 499.181,500.9444 l 8290.277,0 c 277,0 499.945,-222.9445 500.945,-500.9444 0,-3 -0.881,-6.7014 -0.881,-9.7014 z m -8438.444,436.5625 c 78.576,71.3009 156.111,143.7236 233.715,216.0764 -24.116,104.4606 -46.852,209.2243 -69.674,313.9722 -101.551,31.6416 -202.904,63.9056 -304.271,96.132 -77.886,-71.7294 -155.348,-143.9147 -232.833,-216.0764 21.698,-104.9291 45.3,-209.4357 68.792,-313.9722 101.433,-32.0134 202.851,-64.0741 304.271,-96.132 z m 7574.138,8.8195 c 104.673,23.1549 209.322,46.4179 313.973,69.6736 32.12,101.0135 63.667,202.2065 95.25,303.3888 -71.732,78.199 -143.463,156.3983 -215.195,234.5973 -104.657,-23.5185 -209.315,-47.0372 -313.972,-70.5556 -33.192,-101.0624 -64.604,-202.6821 -96.132,-304.2708 70.983,-78.5808 143.578,-155.6577 216.076,-232.8333 z"
       style="fill:none;stroke:#ff0000;stroke-width:28.22222137;stroke-linejoin:miter;stroke-miterlimit:4;stroke-opacity:1;stroke-dasharray:none" /><path
       style="fill:none;stroke:#ff0000;stroke-width:28.22222137;stroke-linejoin:miter;stroke-miterlimit:4;stroke-opacity:1;stroke-dasharray:none"
       d="m 22521.333,3996.0901 -1150.055,0.8805 0,201.9653 c 0,111 -88.32,201.0833 -199.32,201.0833 l -6591.652,0 c -110,0 -199.32,-90.0833 -199.32,-201.0833 l 0,-201.9653 -1149.173,0 0,1053.0417 c 0,277.9999 223.18,500.9444 499.18,500.9444 l 8290.278,0 c 277,0 499.944,-222.9445 500.944,-500.9444 0,-3 -0.88,-6.7014 -0.88,-9.7014 z m -8438.444,436.5625 c 78.576,71.3009 156.111,143.7236 233.715,216.0764 -24.115,104.4606 -46.851,209.2243 -69.673,313.9722 -101.551,31.6416 -202.905,63.9056 -304.271,96.1319 -77.886,-71.7293 -155.349,-143.9147 -232.833,-216.0763 21.697,-104.9291 45.3,-209.4357 68.791,-313.9723 101.433,-32.0133 202.852,-64.074 304.271,-96.1319 z m 7574.139,8.8194 c 104.673,23.155 209.322,46.418 313.972,69.6736 32.12,101.0136 63.667,202.2066 95.25,303.3889 -71.732,78.199 -143.463,156.3983 -215.194,234.5973 -104.658,-23.5185 -209.315,-47.0372 -313.973,-70.5556 -33.191,-101.0624 -64.604,-202.6821 -96.132,-304.2708 70.984,-78.5809 143.578,-155.6577 216.077,-232.8334 z"
       id="path5225"
       inkscape:connector-curvature="0"
       sodipodi:nodetypes="ccssssccssscsccccccccccccccc" /><path
       sodipodi:nodetypes="ccssssccssscsccccccccccccccc"
       inkscape:connector-curvature="0"
       id="path5227"
       d="m 22521.333,1905.5808 -1150.055,0.8805 0,201.9653 c 0,111 -88.32,201.0833 -199.32,201.0833 l -6591.653,0 c -110,0 -199.319,-90.0833 -199.319,-201.0833 l 0,-201.9653 -1149.174,0 0,1053.0417 c 0,277.9999 223.181,500.9444 499.181,500.9444 l 8290.278,0 c 277,0 499.944,-222.9445 500.944,-500.9444 0,-3 -0.88,-6.7014 -0.88,-9.7014 z m -8438.444,436.5625 c 78.576,71.3009 156.111,143.7236 233.715,216.0764 -24.115,104.4606 -46.851,209.2243 -69.674,313.9722 -101.55,31.6416 -202.904,63.9056 -304.27,96.132 -77.887,-71.7294 -155.349,-143.9148 -232.834,-216.0764 21.698,-104.9291 45.301,-209.4357 68.792,-313.9723 101.433,-32.0133 202.851,-64.074 304.271,-96.1319 z m 7574.139,8.8194 c 104.672,23.155 209.321,46.418 313.972,69.6737 32.12,101.0135 63.667,202.2065 95.25,303.3888 -71.732,78.199 -143.463,156.3983 -215.195,234.5973 -104.657,-23.5185 -209.315,-47.0372 -313.972,-70.5556 -33.191,-101.0624 -64.604,-202.6821 -96.132,-304.2708 70.984,-78.5809 143.578,-155.6577 216.077,-232.8334 z"
       style="fill:none;stroke:#ff0000;stroke-width:28.22222137;stroke-linejoin:miter;stroke-miterlimit:4;stroke-opacity:1;stroke-dasharray:none" /></g><g
     id="g5243"
     transform="translate(324.08343,9692.3961)"
     inkscape:export-filename="/home/se/Dokumente/programming/github/OdroidCase/g5320.png"
     inkscape:export-xdpi="92.5"
     inkscape:export-ydpi="92.5"><path
       style="fill:none;stroke:#ff0000;stroke-width:1;stroke-linejoin:miter;stroke-miterlimit:4;stroke-opacity:1;stroke-dasharray:none"
       d="m 443.84375,4.53125 c -9.81496,0 -17.71875,7.903789 -17.71875,17.71875 l 0,293.78125 c 0,9.77953 7.90379,17.71875 17.71875,17.71875 l 379.1875,0 c 9.81496,0 17.71875,-7.93922 17.71875,-17.71875 l 0,-293.78125 c 0,-9.814961 -7.90379,-17.71875 -17.71875,-17.71875 z M 816.875,21.125 c 2.56264,2.74021 5.10892,5.495575 7.65625,8.25 -1.14963,3.589265 -2.27733,7.185438 -3.40625,10.78125 -3.71534,0.791495 -7.41983,1.631422 -11.125,2.46875 -2.57763,-2.736847 -5.11588,-5.50994 -7.65625,-8.28125 1.1365,-3.593408 2.27133,-7.187342 3.40625,-10.78125 3.69883,-0.856163 7.41223,-1.644887 11.125,-2.4375 z M 450.15625,21.25 c 3.70888,0.820454 7.41691,1.64473 11.125,2.46875 1.13811,3.579222 2.25592,7.164801 3.375,10.75 -2.54167,2.770833 -5.08333,5.541667 -7.625,8.3125 -3.71984,-0.828455 -7.438,-1.664438 -11.15625,-2.5 -1.13811,-3.579222 -2.25592,-7.164801 -3.375,-10.75 2.50368,-2.805335 5.0821,-5.541021 7.65625,-8.28125 z m 23.75,23.90625 319.1875,0 c 3.93307,0 7.09375,3.133612 7.09375,7.03125 l 0,233.625 c 0,3.89764 -3.16068,7.03125 -7.09375,7.03125 l -320.59375,0 c -3.22441,-0.6378 -5.625,-3.50468 -5.625,-6.90625 l 0,-233.5625 c 0,-3.933071 3.13361,-7.09375 7.03125,-7.09375 z m 337,249.90625 c 3.59987,1.10549 7.1903,2.24101 10.78125,3.375 0.82846,3.71984 1.66444,7.438 2.5,11.15625 -2.77083,2.54167 -5.54167,5.08333 -8.3125,7.625 -3.58744,-1.11195 -7.16854,-2.24401 -10.75,-3.375 -0.82536,-3.70779 -1.64696,-7.41642 -2.46875,-11.125 2.71591,-2.58893 5.48426,-5.12099 8.25,-7.65625 z m -354.84375,0.125 c 2.80533,2.50368 5.54102,5.0821 8.28125,7.65625 -0.81075,3.71104 -1.64034,7.41788 -2.46875,11.125 -3.58095,1.17608 -7.18165,2.28913 -10.78125,3.40625 -2.78261,-2.51705 -5.5148,-5.08809 -8.25,-7.65625 0.8125,-3.70833 1.625,-7.41667 2.4375,-11.125 3.59409,-1.13433 7.18765,-2.27034 10.78125,-3.40625 z"
       transform="matrix(28.222222,0,0,28.222222,0,-6.6469412e-4)"
       id="path5245"
       inkscape:connector-curvature="0"
       sodipodi:nodetypes="ssssssssscccccccccccccccsssscsscccccccccccccccc" /><path
       style="fill:none;stroke:#ff0000;stroke-width:28.22222137;stroke-linejoin:miter;stroke-miterlimit:4;stroke-opacity:1;stroke-dasharray:none"
       d="m 22521.333,6086.5998 -1150.056,0.8805 0,201.9653 c 0,111 -88.319,201.0834 -199.319,201.0834 l -6591.653,0 c -110,0 -199.319,-90.0834 -199.319,-201.0834 l 0,-201.9653 -1149.174,0 0,1053.0417 c 0,277.9999 223.181,500.9444 499.181,500.9444 l 8290.277,0 c 277,0 499.945,-222.9445 500.945,-500.9444 0,-3 -0.881,-6.7014 -0.881,-9.7014 z m -8438.444,436.5625 c 78.576,71.3009 156.111,143.7236 233.715,216.0764 -24.116,104.4606 -46.852,209.2243 -69.674,313.9722 -101.551,31.6416 -202.904,63.9056 -304.271,96.132 -77.886,-71.7294 -155.348,-143.9147 -232.833,-216.0764 21.698,-104.9291 45.3,-209.4357 68.792,-313.9722 101.433,-32.0134 202.851,-64.0741 304.271,-96.132 z m 7574.138,8.8195 c 104.673,23.1549 209.322,46.4179 313.973,69.6736 32.12,101.0135 63.667,202.2065 95.25,303.3888 -71.732,78.199 -143.463,156.3983 -215.195,234.5973 -104.657,-23.5185 -209.315,-47.0372 -313.972,-70.5556 -33.192,-101.0624 -64.604,-202.6821 -96.132,-304.2708 70.983,-78.5808 143.578,-155.6577 216.076,-232.8333 z"
       id="path5247"
       inkscape:connector-curvature="0"
       sodipodi:nodetypes="ccssssccssscsccccccccccccccc" /><path
       sodipodi:nodetypes="ccssssccssscsccccccccccccccc"
       inkscape:connector-curvature="0"
       id="path5249"
       d="m 22521.333,3996.0901 -1150.055,0.8805 0,201.9653 c 0,111 -88.32,201.0833 -199.32,201.0833 l -6591.652,0 c -110,0 -199.32,-90.0833 -199.32,-201.0833 l 0,-201.9653 -1149.173,0 0,1053.0417 c 0,277.9999 223.18,500.9444 499.18,500.9444 l 8290.278,0 c 277,0 499.944,-222.9445 500.944,-500.9444 0,-3 -0.88,-6.7014 -0.88,-9.7014 z m -8438.444,436.5625 c 78.576,71.3009 156.111,143.7236 233.715,216.0764 -24.115,104.4606 -46.851,209.2243 -69.673,313.9722 -101.551,31.6416 -202.905,63.9056 -304.271,96.1319 -77.886,-71.7293 -155.349,-143.9147 -232.833,-216.0763 21.697,-104.9291 45.3,-209.4357 68.791,-313.9723 101.433,-32.0133 202.852,-64.074 304.271,-96.1319 z m 7574.139,8.8194 c 104.673,23.155 209.322,46.418 313.972,69.6736 32.12,101.0136 63.667,202.2066 95.25,303.3889 -71.732,78.199 -143.463,156.3983 -215.194,234.5973 -104.658,-23.5185 -209.315,-47.0372 -313.973,-70.5556 -33.191,-101.0624 -64.604,-202.6821 -96.132,-304.2708 70.984,-78.5809 143.578,-155.6577 216.077,-232.8334 z"
       style="fill:none;stroke:#ff0000;stroke-width:28.22222137;stroke-linejoin:miter;stroke-miterlimit:4;stroke-opacity:1;stroke-dasharray:none" /><path
       style="fill:none;stroke:#ff0000;stroke-width:28.22222137;stroke-linejoin:miter;stroke-miterlimit:4;stroke-opacity:1;stroke-dasharray:none"
       d="m 22521.333,1905.5808 -1150.055,0.8805 0,201.9653 c 0,111 -88.32,201.0833 -199.32,201.0833 l -6591.653,0 c -110,0 -199.319,-90.0833 -199.319,-201.0833 l 0,-201.9653 -1149.174,0 0,1053.0417 c 0,277.9999 223.181,500.9444 499.181,500.9444 l 8290.278,0 c 277,0 499.944,-222.9445 500.944,-500.9444 0,-3 -0.88,-6.7014 -0.88,-9.7014 z m -8438.444,436.5625 c 78.576,71.3009 156.111,143.7236 233.715,216.0764 -24.115,104.4606 -46.851,209.2243 -69.674,313.9722 -101.55,31.6416 -202.904,63.9056 -304.27,96.132 -77.887,-71.7294 -155.349,-143.9148 -232.834,-216.0764 21.698,-104.9291 45.301,-209.4357 68.792,-313.9723 101.433,-32.0133 202.851,-64.074 304.271,-96.1319 z m 7574.139,8.8194 c 104.672,23.155 209.321,46.418 313.972,69.6737 32.12,101.0135 63.667,202.2065 95.25,303.3888 -71.732,78.199 -143.463,156.3983 -215.195,234.5973 -104.657,-23.5185 -209.315,-47.0372 -313.972,-70.5556 -33.191,-101.0624 -64.604,-202.6821 -96.132,-304.2708 70.984,-78.5809 143.578,-155.6577 216.077,-232.8334 z"
       id="path5251"
       inkscape:connector-curvature="0"
       sodipodi:nodetypes="ccssssccssscsccccccccccccccc" /></g><g
     id="g5320"
     inkscape:export-xdpi="92.5"
     inkscape:export-ydpi="92.5"><path
       id="path227"
       transform="matrix(28.222222,0,0,28.222222,0,-6.2303912e-4)"
       d="M 34.375 347.90625 C 22.044291 347.90625 15.875 354.07554 15.875 366.40625 L 15.875 658.625 C 15.875 670.95571 22.044291 677.125 34.375 677.125 L 412.34375 677.125 C 424.67446 677.125 430.84375 670.95571 430.84375 658.625 L 430.84375 366.40625 C 430.84375 354.07554 424.67446 347.90625 412.34375 347.90625 L 34.375 347.90625 z M 402.8125 370.25 C 403.20226 370.25 403.51649 370.30413 403.90625 370.375 C 404.47318 370.4813 404.97269 370.68529 405.46875 370.96875 C 406.31914 371.46481 406.91019 372.05586 407.40625 372.90625 C 407.86688 373.75664 408.125 374.57037 408.125 375.5625 C 408.125 375.9877 408.07505 376.36024 407.96875 376.75 C 407.82702 377.31693 407.68971 377.72269 407.40625 378.21875 C 406.91019 379.06914 406.31914 379.69144 405.46875 380.1875 C 404.61836 380.64813 403.76919 380.875 402.8125 380.875 C 401.82037 380.875 401.00664 380.64813 400.15625 380.1875 C 399.30586 379.69144 398.68356 379.06914 398.1875 378.21875 C 397.69144 377.36836 397.5 376.51919 397.5 375.5625 C 397.5 374.57037 397.69144 373.75664 398.1875 372.90625 C 398.68356 372.05586 399.30586 371.46481 400.15625 370.96875 C 401.00664 370.47269 401.82037 370.25 402.8125 370.25 z M 42.9375 370.40625 C 43.327264 370.40625 43.641486 370.42913 44.03125 370.5 C 44.598179 370.6063 45.097687 370.84154 45.59375 371.125 C 46.444144 371.62106 47.066437 372.21211 47.5625 373.0625 C 48.02313 373.91289 48.25 374.72662 48.25 375.71875 C 48.25 376.14395 48.231299 376.48524 48.125 376.875 C 47.983268 377.44193 47.845965 377.87894 47.5625 378.375 C 47.066437 379.22539 46.444144 379.81644 45.59375 380.3125 C 44.743356 380.77313 43.894193 381.03125 42.9375 381.03125 C 41.945374 381.03125 41.131644 380.77313 40.28125 380.3125 C 39.430856 379.81644 38.839813 379.22539 38.34375 378.375 C 37.847687 377.52461 37.625 376.67544 37.625 375.71875 C 37.625 374.72662 37.847687 373.91289 38.34375 373.0625 C 38.839813 372.21211 39.430856 371.62106 40.28125 371.125 C 41.131644 370.62894 41.945374 370.40625 42.9375 370.40625 z M 379.0625 394.3125 C 380.05463 394.3125 380.89961 394.53519 381.75 395.03125 C 382.60039 395.52731 383.22269 396.11836 383.71875 396.96875 C 384.21481 397.81914 384.40625 398.66831 384.40625 399.625 L 384.40625 399.65625 C 384.40625 400.61294 384.21481 401.46211 383.71875 402.3125 C 383.22269 403.16289 382.60039 403.78519 381.75 404.28125 C 380.89961 404.77731 380.05044 404.96875 379.09375 404.96875 C 378.10162 404.96875 377.25664 404.77731 376.40625 404.28125 C 375.55586 403.78519 374.96481 403.16289 374.46875 402.3125 C 373.97269 401.46211 373.75 400.61294 373.75 399.65625 C 373.75 398.66412 373.97269 397.81914 374.46875 396.96875 C 374.96481 396.11836 375.55586 395.52731 376.40625 395.03125 C 377.25664 394.53519 378.10581 394.3125 379.0625 394.3125 z M 67.59375 620.03125 C 68.585876 620.03125 69.462106 620.25394 70.3125 620.75 C 71.162894 621.24606 71.753937 621.83711 72.25 622.6875 C 72.746063 623.53789 72.96875 624.38706 72.96875 625.34375 C 72.96875 626.33588 72.746063 627.18086 72.25 628.03125 C 71.753937 628.88164 71.162894 629.47269 70.3125 629.96875 C 69.462106 630.46481 68.612943 630.6875 67.65625 630.6875 C 66.664124 630.6875 65.787894 630.46481 64.9375 629.96875 C 64.087106 629.47269 63.496063 628.88164 63 628.03125 C 62.503937 627.18086 62.28125 626.33169 62.28125 625.375 C 62.28125 624.38287 62.503937 623.53789 63 622.6875 C 63.496063 621.83711 64.087106 621.24606 64.9375 620.75 C 65.787894 620.25394 66.637057 620.03125 67.59375 620.03125 z M 379.0625 620.03125 C 380.05463 620.03125 380.89961 620.25394 381.75 620.75 C 382.60039 621.24606 383.22269 621.83711 383.71875 622.6875 C 384.21481 623.53789 384.40625 624.38706 384.40625 625.34375 C 384.40625 626.33588 384.21481 627.18086 383.71875 628.03125 C 383.22269 628.88164 382.60039 629.47269 381.75 629.96875 C 380.89961 630.46481 380.05044 630.6875 379.09375 630.6875 C 378.10162 630.6875 377.25664 630.46481 376.40625 629.96875 C 375.55586 629.47269 374.96481 628.88164 374.46875 628.03125 C 373.97269 627.18086 373.75 626.33169 373.75 625.375 C 373.75 624.38287 373.97269 623.53789 374.46875 622.6875 C 374.96481 621.83711 375.55586 621.24606 376.40625 620.75 C 377.25664 620.25394 378.10581 620.03125 379.0625 620.03125 z M 402.8125 644.5 C 403.20226 644.5 403.51649 644.55413 403.90625 644.625 C 404.47318 644.7313 404.97269 644.93529 405.46875 645.21875 C 406.31914 645.71481 406.91019 646.30586 407.40625 647.15625 C 407.86688 648.00664 408.125 648.82037 408.125 649.8125 C 408.125 650.2377 408.07505 650.61024 407.96875 651 C 407.82702 651.56693 407.68971 651.97269 407.40625 652.46875 C 406.91019 653.31914 406.31914 653.94144 405.46875 654.4375 C 404.61836 654.89813 403.76919 655.15625 402.8125 655.15625 C 401.82037 655.15625 401.00664 654.89813 400.15625 654.4375 C 399.30586 653.94144 398.68356 653.31914 398.1875 652.46875 C 397.69144 651.61836 397.5 650.76919 397.5 649.8125 C 397.5 648.82037 397.69144 648.00664 398.1875 647.15625 C 398.68356 646.30586 399.30586 645.71481 400.15625 645.21875 C 401.00664 644.72269 401.82037 644.5 402.8125 644.5 z M 42.9375 644.65625 C 43.327264 644.65625 43.641486 644.67913 44.03125 644.75 C 44.598179 644.8563 45.097687 645.09154 45.59375 645.375 C 46.444144 645.87106 47.066437 646.46211 47.5625 647.3125 C 48.02313 648.16289 48.25 648.97662 48.25 649.96875 C 48.25 650.39395 48.231299 650.73524 48.125 651.125 C 47.983268 651.69193 47.845965 652.12894 47.5625 652.625 C 47.066437 653.47539 46.444144 654.06644 45.59375 654.5625 C 44.743356 655.02313 43.894193 655.28125 42.9375 655.28125 C 41.945374 655.28125 41.131644 655.02313 40.28125 654.5625 C 39.430856 654.06644 38.839813 653.47539 38.34375 652.625 C 37.847687 651.77461 37.625 650.92544 37.625 649.96875 C 37.625 648.97662 37.847687 648.16289 38.34375 647.3125 C 38.839813 646.46211 39.430856 645.87106 40.28125 645.375 C 41.131644 644.87894 41.945374 644.65625 42.9375 644.65625 z "
       style="fill:none;stroke:#ff0000;stroke-width:0.99999994;stroke-linejoin:miter;stroke-miterlimit:4;stroke-opacity:1;stroke-dasharray:none" /><path
       d="m 1909.0834,11128.556 -1,0 c 28,0 52,6 76,20 24,14 41,31 55,55 14,24 20,48 20,75 l 0,1 0,0 c 0,27 -6,51 -20,75 -14,24 -31,41 -55,55 -24,14 -48,20 -75,20 -28,0 -52,-6 -76,-20 -24,-14 -41,-31 -55,-55 -14,-24 -20,-48 -20,-75 0,-28 6,-52 20,-76 14,-24 31,-41 55,-55 24,-14 48,-20 75,-20 l 1,0 z"
       id="path252"
       inkscape:connector-curvature="0"
       style="fill:none;stroke:#ff0000;stroke-width:28.22222137;stroke-linejoin:miter;stroke-miterlimit:4;stroke-opacity:1;stroke-dasharray:none" /><path
       transform="matrix(3.3905561,0,0,4.903279,10408.225,14260.743)"
       d="m 386.26012,831.85425 a 103.16264,71.374146 0 1 1 -206.32529,0 103.16264,71.374146 0 1 1 206.32529,0 z"
       sodipodi:ry="71.374146"
       sodipodi:rx="103.16264"
       sodipodi:cy="831.85425"
       sodipodi:cx="283.09747"
       id="path5253"
       style="color:#000000;fill:none;stroke:#00ff00;stroke-width:6.92169476;stroke-linecap:butt;stroke-linejoin:round;stroke-miterlimit:4;stroke-opacity:1;stroke-dasharray:none;stroke-dashoffset:0;marker:none;visibility:visible;display:inline;overflow:visible;enable-background:accumulate"
       sodipodi:type="arc" /><path
       sodipodi:type="arc"
       style="color:#000000;fill:none;stroke:#00ff00;stroke-width:6.92169476;stroke-linecap:butt;stroke-linejoin:round;stroke-miterlimit:4;stroke-opacity:1;stroke-dasharray:none;stroke-dashoffset:0;marker:none;visibility:visible;display:inline;overflow:visible;enable-background:accumulate"
       id="path5255"
       sodipodi:cx="283.09747"
       sodipodi:cy="831.85425"
       sodipodi:rx="103.16264"
       sodipodi:ry="71.374146"
       d="m 386.26012,831.85425 a 103.16264,71.374146 0 1 1 -206.32529,0 103.16264,71.374146 0 1 1 206.32529,0 z"
       transform="matrix(3.3905561,0,0,4.903279,10408.225,6520.7425)" /><path
       sodipodi:type="arc"
       style="color:#000000;fill:none;stroke:#00ff00;stroke-width:6.92169476;stroke-linecap:butt;stroke-linejoin:round;stroke-miterlimit:4;stroke-opacity:1;stroke-dasharray:none;stroke-dashoffset:0;marker:none;visibility:visible;display:inline;overflow:visible;enable-background:accumulate"
       id="path5257"
       sodipodi:cx="283.09747"
       sodipodi:cy="831.85425"
       sodipodi:rx="103.16264"
       sodipodi:ry="71.374146"
       d="m 386.26012,831.85425 a 103.16264,71.374146 0 1 1 -206.32529,0 103.16264,71.374146 0 1 1 206.32529,0 z"
       transform="matrix(3.3905561,0,0,4.903279,252.22557,14264.743)" /><path
       transform="matrix(3.3905561,0,0,4.903279,252.22557,6524.7425)"
       d="m 386.26012,831.85425 a 103.16264,71.374146 0 1 1 -206.32529,0 103.16264,71.374146 0 1 1 206.32529,0 z"
       sodipodi:ry="71.374146"
       sodipodi:rx="103.16264"
       sodipodi:cy="831.85425"
       sodipodi:cx="283.09747"
       id="path5259"
       style="color:#000000;fill:none;stroke:#00ff00;stroke-width:6.92169476;stroke-linecap:butt;stroke-linejoin:round;stroke-miterlimit:4;stroke-opacity:1;stroke-dasharray:none;stroke-dashoffset:0;marker:none;visibility:visible;display:inline;overflow:visible;enable-background:accumulate"
       sodipodi:type="arc" /></g><g
     id="g5459"><g
       style="stroke:none;stroke-opacity:1;fill:#ff0000;fill-opacity:1"
       id="g5424"><path
         inkscape:connector-curvature="0"
         id="path5337"
         style="font-size:1128.88891601999989689px;font-style:normal;font-weight:normal;text-align:center;line-height:125%;letter-spacing:0px;word-spacing:0px;text-anchor:middle;fill:#ff0000;fill-opacity:1;stroke:none;font-family:Sans;stroke-opacity:1"
         d="m 27859.881,8237.1891 c -11.392,-6.614 -23.886,-11.3912 -37.482,-14.3316 -13.23,-3.3067 -27.929,-4.9604 -44.097,-4.9609 -57.327,5e-4 -101.424,18.7418 -132.292,56.2239 -30.501,37.1157 -45.751,90.5835 -45.751,160.4037 l 0,325.217 -101.975,0 0,-617.3611 101.975,0 0,95.9114 c 21.313,-37.482 49.058,-65.2265 83.234,-83.2335 34.175,-18.3732 75.699,-27.5601 124.574,-27.5607 6.982,6e-4 14.699,0.5518 23.151,1.6536 8.452,0.7356 17.822,2.0218 28.112,3.8585 l 0.551,104.1797" /><path
         inkscape:connector-curvature="0"
         id="path5339"
         style="font-size:1128.88891601999989689px;font-style:normal;font-weight:normal;text-align:center;line-height:125%;letter-spacing:0px;word-spacing:0px;text-anchor:middle;fill:#ff0000;fill-opacity:1;stroke:none;font-family:Sans;stroke-opacity:1"
         d="m 28471.179,8425.7047 0,49.6094 -466.328,0 c 4.41,69.8208 25.356,123.1049 62.839,159.8525 37.849,36.3803 90.399,54.5703 157.647,54.5703 38.952,0 76.619,-4.7772 112.999,-14.3316 36.747,-9.5543 73.128,-23.8859 109.141,-42.9948 l 0,95.9114 c -36.381,15.4341 -73.68,27.1933 -111.897,35.2778 -38.218,8.0845 -76.987,12.1267 -116.306,12.1268 -98.484,-1e-4 -176.573,-28.6632 -234.267,-85.9896 -57.326,-57.3263 -85.989,-134.8638 -85.989,-232.6129 0,-101.0557 27.193,-181.1656 81.58,-240.3299 54.753,-59.5306 128.433,-89.2962 221.037,-89.2968 83.049,6e-4 148.644,26.8264 196.784,80.4774 48.506,53.2846 72.76,125.8613 72.76,217.73 m -101.423,-29.7656 c -0.736,-55.4886 -16.354,-99.7695 -46.854,-132.8429 -30.133,-33.0724 -70.188,-49.6088 -120.165,-49.6093 -56.591,5e-4 -101.975,15.9857 -136.15,47.9557 -33.808,31.9709 -53.284,76.9868 -58.429,135.0477 l 361.598,-0.5512" /><path
         inkscape:connector-curvature="0"
         id="path5341"
         style="font-size:1128.88891601999989689px;font-style:normal;font-weight:normal;text-align:center;line-height:125%;letter-spacing:0px;word-spacing:0px;text-anchor:middle;fill:#ff0000;fill-opacity:1;stroke:none;font-family:Sans;stroke-opacity:1"
         d="m 29043.892,8236.0867 0,-334.0365 101.423,0 0,857.691 -101.423,0 0,-92.6042 c -21.314,36.7478 -48.324,64.1248 -81.029,82.1311 -32.338,17.6389 -71.291,26.4583 -116.857,26.4584 -74.598,-1e-4 -135.416,-29.7657 -182.453,-89.2969 -46.669,-59.5311 -70.004,-137.8036 -70.004,-234.8177 0,-97.0135 23.335,-175.286 70.004,-234.8178 47.037,-59.5306 107.855,-89.2962 182.453,-89.2968 45.566,6e-4 84.519,9.0038 116.857,27.0095 32.705,17.6395 59.715,44.8328 81.029,81.5799 m -345.612,215.5252 c 0,74.598 15.25,133.2105 45.751,175.8376 30.868,42.26 73.127,63.3899 126.779,63.3898 53.651,1e-4 95.911,-21.1298 126.78,-63.3898 30.867,-42.6271 46.301,-101.2396 46.302,-175.8376 0,-74.5975 -15.435,-133.0262 -46.302,-175.2865 -30.869,-42.6268 -73.129,-63.9404 -126.78,-63.941 -53.652,6e-4 -95.911,21.3142 -126.779,63.941 -30.501,42.2603 -45.751,100.689 -45.751,175.2865" /><path
         inkscape:connector-curvature="0"
         id="path5343"
         style="font-size:1128.88891601999989689px;font-style:normal;font-weight:normal;text-align:center;line-height:125%;letter-spacing:0px;word-spacing:0px;text-anchor:middle;fill:#ff0000;fill-opacity:1;stroke:none;font-family:Sans;stroke-opacity:1"
         d="m 29380.133,8619.7325 116.307,0 0,140.0087 -116.307,0 0,-140.0087 m 0,-443.7283 116.307,0 0,140.0087 -116.307,0 0,-140.0087" /><path
         inkscape:connector-curvature="0"
         id="path5345"
         style="font-size:1128.88891601999989689px;font-style:normal;font-weight:normal;text-align:center;line-height:125%;letter-spacing:0px;word-spacing:0px;text-anchor:middle;fill:#ff0000;fill-opacity:1;stroke:none;font-family:Sans;stroke-opacity:1"
         d="m 30539.339,8166.0823 0,94.8091 c -28.664,-15.801 -57.511,-27.5603 -86.541,-35.2778 -28.663,-8.084 -57.694,-12.1262 -87.092,-12.1267 -65.778,5e-4 -116.858,20.9467 -153.238,62.8385 -36.38,41.5253 -54.57,99.9541 -54.57,175.2865 0,75.333 18.19,133.9455 54.57,175.8376 36.38,41.525 87.46,62.2874 153.238,62.2874 29.398,0 58.429,-3.8585 87.092,-11.5756 29.03,-8.0844 57.877,-20.0273 86.541,-35.8289 l 0,93.7066 c -28.296,13.2291 -57.694,23.151 -88.194,29.7656 -30.134,6.6145 -62.288,9.9218 -96.463,9.9219 -92.972,-1e-4 -166.835,-29.2144 -221.589,-87.6433 -54.754,-58.4287 -82.131,-137.2524 -82.131,-236.4713 0,-100.6883 27.561,-179.8795 82.683,-237.5738 55.488,-57.6933 131.372,-86.5402 227.651,-86.5408 31.236,6e-4 61.736,3.3079 91.502,9.9218 29.765,6.2478 58.612,15.8022 86.541,28.6632" /><path
         inkscape:connector-curvature="0"
         id="path5347"
         style="font-size:1128.88891601999989689px;font-style:normal;font-weight:normal;text-align:center;line-height:125%;letter-spacing:0px;word-spacing:0px;text-anchor:middle;fill:#ff0000;fill-opacity:1;stroke:none;font-family:Sans;stroke-opacity:1"
         d="m 30706.357,8516.1041 0,-373.724 101.424,0 0,369.8654 c 0,58.4291 11.391,102.3425 34.175,131.7405 22.783,29.0308 56.959,43.5461 102.526,43.546 54.754,1e-4 97.932,-17.4551 129.536,-52.3654 31.97,-34.9102 47.955,-82.4984 47.955,-142.7648 l 0,-350.0217 101.424,0 0,617.3611 -101.424,0 0,-94.809 c -24.621,37.4827 -53.284,65.4109 -85.989,83.7847 -32.338,18.0064 -70.005,27.0095 -112.999,27.0096 -70.924,-1e-4 -124.759,-22.0487 -161.506,-66.1459 -36.748,-44.0971 -55.122,-108.5892 -55.122,-193.4765 m 255.213,-388.6068 0,0" /><path
         inkscape:connector-curvature="0"
         id="path5349"
         style="font-size:1128.88891601999989689px;font-style:normal;font-weight:normal;text-align:center;line-height:125%;letter-spacing:0px;word-spacing:0px;text-anchor:middle;fill:#ff0000;fill-opacity:1;stroke:none;font-family:Sans;stroke-opacity:1"
         d="m 31533.732,7967.0936 0,175.2865 208.91,0 0,78.8238 -208.91,0 0,335.1389 c 0,50.3445 6.798,82.6824 20.394,97.0139 13.964,14.3316 42.076,21.4974 84.336,21.4974 l 104.18,0 0,84.8871 -104.18,0 c -78.272,0 -132.291,-14.5153 -162.057,-43.546 -29.766,-29.3981 -44.648,-82.6822 -44.648,-159.8524 l 0,-335.1389 -74.414,0 0,-78.8238 74.414,0 0,-175.2865 101.975,0" /></g><g
       style="fill:#00ff00;fill-opacity:1"
       id="g5433"><path
         inkscape:connector-curvature="0"
         id="path5351"
         style="font-size:1128.88891601999989689px;font-style:normal;font-weight:normal;text-align:center;line-height:125%;letter-spacing:0px;word-spacing:0px;text-anchor:middle;fill:#00ff00;fill-opacity:1;stroke:none;font-family:Sans"
         d="m 26033.705,9314.2638 c -49.242,84.5204 -85.806,168.1213 -109.692,250.803 -23.886,82.6828 -35.829,166.4674 -35.829,251.3541 0,84.8874 11.943,169.0396 35.829,252.4571 24.254,83.049 60.817,166.65 109.692,250.802 l -88.194,0 c -55.122,-86.357 -96.463,-171.244 -124.024,-254.661 -27.193,-83.417 -40.79,-166.283 -40.79,-248.5981 0,-81.9469 13.597,-164.4454 40.79,-247.4956 27.193,-83.0491 68.535,-167.9362 124.024,-254.6615 l 88.194,0" /><path
         inkscape:connector-curvature="0"
         id="path5353"
         style="font-size:1128.88891601999989689px;font-style:normal;font-weight:normal;text-align:center;line-height:125%;letter-spacing:0px;word-spacing:0px;text-anchor:middle;fill:#00ff00;fill-opacity:1;stroke:none;font-family:Sans"
         d="m 26637.286,9855.006 c 0,-73.495 -15.251,-130.4538 -45.751,-170.8767 -30.133,-40.422 -72.577,-60.6332 -127.331,-60.6337 -54.387,5e-4 -96.83,20.2117 -127.33,60.6337 -30.134,40.4229 -45.2,97.3817 -45.2,170.8767 0,73.1281 15.066,129.9033 45.2,170.326 30.5,40.422 72.943,60.633 127.33,60.633 54.754,0 97.198,-20.211 127.331,-60.633 30.5,-40.4227 45.75,-97.1979 45.751,-170.326 m 101.424,239.227 c 0,105.099 -23.336,183.188 -70.005,234.267 -46.67,51.446 -118.144,77.17 -214.423,77.17 -35.645,0 -69.269,-2.756 -100.872,-8.268 -31.603,-5.145 -62.287,-13.23 -92.053,-24.254 l 0,-98.667 c 29.766,16.169 59.164,28.112 88.195,35.829 29.03,7.717 58.612,11.575 88.745,11.575 66.513,0 116.306,-17.455 149.38,-52.365 33.072,-34.543 49.608,-86.908 49.609,-157.096 l 0,-50.161 c -20.947,36.38 -47.773,63.573 -80.477,81.58 -32.706,18.006 -71.843,27.009 -117.409,27.009 -75.701,0 -136.702,-28.847 -183.004,-86.54 -46.302,-57.694 -69.453,-134.1293 -69.453,-229.306 0,-95.5436 23.151,-172.1624 69.453,-229.8568 46.302,-57.6932 107.303,-86.5402 183.004,-86.5408 45.566,6e-4 84.703,9.0038 117.409,27.0096 32.704,18.0069 59.53,45.2002 80.477,81.5798 l 0,-93.7066 101.424,0 0,540.7418" /><path
         inkscape:connector-curvature="0"
         id="path5355"
         style="font-size:1128.88891601999989689px;font-style:normal;font-weight:normal;text-align:center;line-height:125%;letter-spacing:0px;word-spacing:0px;text-anchor:middle;fill:#00ff00;fill-opacity:1;stroke:none;font-family:Sans"
         d="m 27305.359,9648.3003 c -11.392,-6.6141 -23.887,-11.3913 -37.483,-14.3316 -13.229,-3.3068 -27.928,-4.9604 -44.097,-4.961 -57.327,6e-4 -101.424,18.7419 -132.292,56.224 -30.5,37.1156 -45.751,90.5834 -45.751,160.4036 l 0,325.2167 -101.974,0 0,-617.3608 101.974,0 0,95.9115 c 21.314,-37.4821 49.058,-65.2266 83.234,-83.2335 34.175,-18.3732 75.7,-27.5602 124.575,-27.5608 6.981,6e-4 14.698,0.5519 23.151,1.6537 8.451,0.7355 17.822,2.0217 28.112,3.8585 l 0.551,104.1797" /><path
         inkscape:connector-curvature="0"
         id="path5357"
         style="font-size:1128.88891601999989689px;font-style:normal;font-weight:normal;text-align:center;line-height:125%;letter-spacing:0px;word-spacing:0px;text-anchor:middle;fill:#00ff00;fill-opacity:1;stroke:none;font-family:Sans"
         d="m 27916.657,9836.8159 0,49.6094 -466.328,0 c 4.409,69.8208 25.355,123.1047 62.838,159.8527 37.85,36.38 90.399,54.57 157.648,54.57 38.952,0 76.618,-4.777 112.999,-14.332 36.747,-9.554 73.127,-23.885 109.14,-42.994 l 0,95.911 c -36.38,15.434 -73.679,27.193 -111.896,35.278 -38.218,8.084 -76.987,12.127 -116.307,12.127 -98.484,0 -176.573,-28.664 -234.266,-85.99 -57.327,-57.326 -85.99,-134.8638 -85.99,-232.6128 0,-101.0558 27.193,-181.1656 81.58,-240.3299 54.754,-59.5307 128.433,-89.2963 221.037,-89.2969 83.05,6e-4 148.644,26.8264 196.784,80.4774 48.507,53.2847 72.76,125.8613 72.761,217.7301 m -101.424,-29.7656 c -0.735,-55.4886 -16.353,-99.7695 -46.853,-132.8429 -30.134,-33.0724 -70.189,-49.6089 -120.165,-49.6094 -56.592,5e-4 -101.975,15.9858 -136.15,47.9557 -33.808,31.971 -53.285,76.9869 -58.429,135.0478 l 361.597,-0.5512" /><path
         inkscape:connector-curvature="0"
         id="path5359"
         style="font-size:1128.88891601999989689px;font-style:normal;font-weight:normal;text-align:center;line-height:125%;letter-spacing:0px;word-spacing:0px;text-anchor:middle;fill:#00ff00;fill-opacity:1;stroke:none;font-family:Sans"
         d="m 28611.188,9836.8159 0,49.6094 -466.328,0 c 4.409,69.8208 25.356,123.1047 62.838,159.8527 37.85,36.38 90.399,54.57 157.648,54.57 38.952,0 76.618,-4.777 112.999,-14.332 36.747,-9.554 73.127,-23.885 109.141,-42.994 l 0,95.911 c -36.381,15.434 -73.68,27.193 -111.897,35.278 -38.218,8.084 -76.987,12.127 -116.306,12.127 -98.485,0 -176.573,-28.664 -234.267,-85.99 -57.326,-57.326 -85.99,-134.8638 -85.99,-232.6128 0,-101.0558 27.194,-181.1656 81.58,-240.3299 54.754,-59.5307 128.433,-89.2963 221.038,-89.2969 83.049,6e-4 148.644,26.8264 196.784,80.4774 48.506,53.2847 72.759,125.8613 72.76,217.7301 m -101.424,-29.7656 c -0.735,-55.4886 -16.353,-99.7695 -46.853,-132.8429 -30.134,-33.0724 -70.188,-49.6089 -120.165,-49.6094 -56.592,5e-4 -101.975,15.9858 -136.15,47.9557 -33.808,31.971 -53.284,76.9869 -58.429,135.0478 l 361.597,-0.5512" /><path
         inkscape:connector-curvature="0"
         id="path5361"
         style="font-size:1128.88891601999989689px;font-style:normal;font-weight:normal;text-align:center;line-height:125%;letter-spacing:0px;word-spacing:0px;text-anchor:middle;fill:#00ff00;fill-opacity:1;stroke:none;font-family:Sans"
         d="m 29290.836,9798.2308 0,372.6212 -101.423,0 0,-369.3139 c 0,-58.4284 -11.393,-102.1581 -34.176,-131.1892 -22.784,-29.0302 -56.959,-43.5455 -102.526,-43.546 -54.754,5e-4 -97.932,17.4556 -129.535,52.3654 -31.603,34.9108 -47.405,82.499 -47.405,142.7648 l 0,348.9189 -101.975,0 0,-617.3608 101.975,0 0,95.9115 c 24.254,-37.1146 52.733,-64.8591 85.439,-83.2335 33.072,-18.3732 71.106,-27.5602 114.101,-27.5608 70.923,6e-4 124.574,22.0492 160.955,66.1459 36.38,43.7302 54.57,108.2223 54.57,193.4765" /><path
         inkscape:connector-curvature="0"
         id="path5363"
         style="font-size:1128.88891601999989689px;font-style:normal;font-weight:normal;text-align:center;line-height:125%;letter-spacing:0px;word-spacing:0px;text-anchor:middle;fill:#00ff00;fill-opacity:1;stroke:none;font-family:Sans"
         d="m 29520.142,10030.844 116.306,0 0,140.008 -116.306,0 0,-140.008 m 0,-443.7286 116.306,0 0,140.0086 -116.306,0 0,-140.0086" /><path
         inkscape:connector-curvature="0"
         id="path5365"
         style="font-size:1128.88891601999989689px;font-style:normal;font-weight:normal;text-align:center;line-height:125%;letter-spacing:0px;word-spacing:0px;text-anchor:middle;fill:#00ff00;fill-opacity:1;stroke:none;font-family:Sans"
         d="m 30715.728,9672.0025 c 25.355,-45.5666 55.672,-79.1907 90.95,-100.8724 35.277,-21.6805 76.802,-32.5211 124.575,-32.5217 64.308,6e-4 113.917,22.6005 148.828,67.7995 34.909,44.8327 52.365,108.7736 52.366,191.8229 l 0,372.6212 -101.975,0 0,-369.3139 c 0,-59.1633 -10.474,-103.0768 -31.42,-131.7404 -20.947,-28.6627 -52.917,-42.9943 -95.911,-42.9948 -52.55,5e-4 -94.075,17.4556 -124.575,52.3654 -30.501,34.9108 -45.751,82.499 -45.751,142.7648 l 0,348.9189 -101.974,0 0,-369.3139 c 0,-59.5308 -10.474,-103.4443 -31.42,-131.7404 -20.946,-28.6627 -53.284,-42.9943 -97.014,-42.9948 -51.814,5e-4 -92.971,17.6394 -123.472,52.9166 -30.501,34.9108 -45.751,82.3153 -45.751,142.2136 l 0,348.9189 -101.974,0 0,-617.3608 101.974,0 0,95.9115 c 23.151,-37.8496 50.896,-65.7778 83.234,-83.7847 32.338,-18.0058 70.739,-27.009 115.204,-27.0096 44.832,6e-4 82.865,11.3924 114.101,34.1754 31.603,22.7841 54.938,55.857 70.005,99.2187" /><path
         inkscape:connector-curvature="0"
         id="path5367"
         style="font-size:1128.88891601999989689px;font-style:normal;font-weight:normal;text-align:center;line-height:125%;letter-spacing:0px;word-spacing:0px;text-anchor:middle;fill:#00ff00;fill-opacity:1;stroke:none;font-family:Sans"
         d="m 31615.862,9860.5181 c -81.947,4e-4 -138.723,9.371 -170.325,28.112 -31.603,18.7416 -47.405,50.7121 -47.405,95.9115 0,36.0124 11.759,64.6764 35.278,85.9894 23.886,20.946 56.224,31.42 97.014,31.419 56.223,10e-4 101.239,-19.843 135.048,-59.531 34.174,-40.055 51.262,-93.155 51.263,-159.301 l 0,-22.5999 -100.873,0 m 202.296,-41.8923 0,352.2262 -101.423,0 0,-93.706 c -23.152,37.482 -51.999,65.227 -86.541,83.233 -34.543,17.639 -76.803,26.459 -126.78,26.459 -63.206,0 -113.55,-17.639 -151.033,-52.917 -37.115,-35.645 -55.673,-83.233 -55.672,-142.7648 0,-69.4529 23.151,-121.8183 69.453,-157.0964 46.669,-35.2774 116.122,-52.9163 208.359,-52.9167 l 142.214,0 0,-9.9218 c 0,-46.6691 -15.435,-82.6818 -46.302,-108.0382 -30.501,-25.7229 -73.496,-38.5846 -128.985,-38.5851 -35.278,5e-4 -69.637,4.2265 -103.077,12.678 -33.441,8.4524 -65.595,21.1304 -96.463,38.0338 l 0,-93.7066 c 37.115,-14.331 73.128,-24.9878 108.038,-31.9705 34.91,-7.3489 68.902,-11.0237 101.975,-11.0243 89.297,6e-4 155.994,23.1517 200.091,69.4531 44.097,46.3026 66.146,116.4907 66.146,210.5643" /><path
         inkscape:connector-curvature="0"
         id="path5369"
         style="font-size:1128.88891601999989689px;font-style:normal;font-weight:normal;text-align:center;line-height:125%;letter-spacing:0px;word-spacing:0px;text-anchor:middle;fill:#00ff00;fill-opacity:1;stroke:none;font-family:Sans"
         d="m 32385.359,9648.3003 c -11.392,-6.6141 -23.886,-11.3913 -37.483,-14.3316 -13.229,-3.3068 -27.928,-4.9604 -44.097,-4.961 -57.327,6e-4 -101.424,18.7419 -132.292,56.224 -30.5,37.1156 -45.751,90.5834 -45.75,160.4036 l 0,325.2167 -101.975,0 0,-617.3608 101.975,0 0,95.9115 c 21.313,-37.4821 49.058,-65.2266 83.233,-83.2335 34.175,-18.3732 75.7,-27.5602 124.575,-27.5608 6.981,6e-4 14.698,0.5519 23.151,1.6537 8.451,0.7355 17.822,2.0217 28.112,3.8585 l 0.551,104.1797" /><path
         inkscape:connector-curvature="0"
         id="path5371"
         style="font-size:1128.88891601999989689px;font-style:normal;font-weight:normal;text-align:center;line-height:125%;letter-spacing:0px;word-spacing:0px;text-anchor:middle;fill:#00ff00;fill-opacity:1;stroke:none;font-family:Sans"
         d="m 32488.987,9313.1614 101.975,0 0,506.5668 302.617,-266.237 129.536,0 -327.422,288.8368 341.202,328.524 -132.291,0 -313.642,-301.5144 0,301.5144 -101.975,0 0,-857.6906" /><path
         inkscape:connector-curvature="0"
         id="path5373"
         style="font-size:1128.88891601999989689px;font-style:normal;font-weight:normal;text-align:center;line-height:125%;letter-spacing:0px;word-spacing:0px;text-anchor:middle;fill:#00ff00;fill-opacity:1;stroke:none;font-family:Sans"
         d="m 33131.704,9314.2638 88.195,0 c 55.121,86.7253 96.278,171.6124 123.472,254.6615 27.56,83.0502 41.341,165.5487 41.341,247.4956 0,82.3151 -13.781,165.1811 -41.341,248.5981 -27.194,83.417 -68.351,168.304 -123.472,254.661 l -88.195,0 c 48.875,-84.152 85.255,-167.753 109.141,-250.802 24.253,-83.4175 36.38,-167.5697 36.38,-252.4571 0,-84.8867 -12.127,-168.6713 -36.38,-251.3541 -23.886,-82.6817 -60.266,-166.2826 -109.141,-250.803" /></g><g
       id="g5447"><path
         inkscape:connector-curvature="0"
         id="path5375"
         style="font-size:1128.88891602px;font-style:normal;font-weight:normal;text-align:center;line-height:125%;letter-spacing:0px;word-spacing:0px;text-anchor:middle;fill:#000000;fill-opacity:1;stroke:none;font-family:Sans"
         d="m 26181.431,10988.305 0,94.809 c -28.664,-15.801 -57.511,-27.561 -86.541,-35.278 -28.664,-8.084 -57.694,-12.126 -87.092,-12.127 -65.779,10e-4 -116.858,20.947 -153.238,62.839 -36.38,41.525 -54.57,99.954 -54.57,175.286 0,75.333 18.19,133.946 54.57,175.838 36.38,41.525 87.459,62.287 153.238,62.287 29.398,0 58.428,-3.858 87.092,-11.575 29.03,-8.085 57.877,-20.028 86.541,-35.829 l 0,93.706 c -28.296,13.229 -57.694,23.151 -88.195,29.766 -30.133,6.614 -62.287,9.922 -96.462,9.922 -92.972,0 -166.835,-29.215 -221.589,-87.643 -54.754,-58.429 -82.131,-137.253 -82.131,-236.472 0,-100.688 27.561,-179.879 82.682,-237.574 55.489,-57.693 131.373,-86.54 227.652,-86.54 31.235,0 61.736,3.307 91.502,9.921 29.765,6.248 58.612,15.803 86.541,28.664" /><path
         inkscape:connector-curvature="0"
         id="path5377"
         style="font-size:1128.88891602px;font-style:normal;font-weight:normal;text-align:center;line-height:125%;letter-spacing:0px;word-spacing:0px;text-anchor:middle;fill:#000000;fill-opacity:1;stroke:none;font-family:Sans"
         d="m 26598.15,11035.709 c -54.387,10e-4 -97.382,21.314 -128.985,63.941 -31.603,42.26 -47.404,100.322 -47.404,174.184 0,73.863 15.617,132.108 46.853,174.735 31.603,42.26 74.781,63.39 129.536,63.39 54.018,0 96.829,-21.313 128.433,-63.941 31.602,-42.627 47.404,-100.688 47.404,-174.184 0,-73.127 -15.802,-131.005 -47.404,-173.633 -31.604,-42.994 -74.415,-64.491 -128.433,-64.492 m 0,-85.989 c 88.194,0 157.463,28.663 207.808,85.989 50.344,57.327 75.516,136.702 75.516,238.125 0,101.056 -25.172,180.431 -75.516,238.125 -50.345,57.327 -119.614,85.99 -207.808,85.99 -88.562,0 -158.016,-28.663 -208.36,-85.99 -49.977,-57.694 -74.965,-137.069 -74.965,-238.125 0,-101.423 24.988,-180.798 74.965,-238.125 50.344,-57.326 119.798,-85.989 208.36,-85.989" /><path
         inkscape:connector-curvature="0"
         id="path5379"
         style="font-size:1128.88891602px;font-style:normal;font-weight:normal;text-align:center;line-height:125%;letter-spacing:0px;word-spacing:0px;text-anchor:middle;fill:#000000;fill-opacity:1;stroke:none;font-family:Sans"
         d="m 27049.044,10724.273 101.423,0 0,857.691 -101.423,0 0,-857.691" /><path
         inkscape:connector-curvature="0"
         id="path5381"
         style="font-size:1128.88891602px;font-style:normal;font-weight:normal;text-align:center;line-height:125%;letter-spacing:0px;word-spacing:0px;text-anchor:middle;fill:#000000;fill-opacity:1;stroke:none;font-family:Sans"
         d="m 27601.361,11035.709 c -54.386,10e-4 -97.381,21.314 -128.984,63.941 -31.603,42.26 -47.405,100.322 -47.404,174.184 0,73.863 15.617,132.108 46.853,174.735 31.603,42.26 74.781,63.39 129.535,63.39 54.019,0 96.83,-21.313 128.434,-63.941 31.602,-42.627 47.404,-100.688 47.404,-174.184 0,-73.127 -15.802,-131.005 -47.404,-173.633 -31.604,-42.994 -74.415,-64.491 -128.434,-64.492 m 0,-85.989 c 88.194,0 157.464,28.663 207.809,85.989 50.343,57.327 75.516,136.702 75.516,238.125 0,101.056 -25.173,180.431 -75.516,238.125 -50.345,57.327 -119.615,85.99 -207.809,85.99 -88.562,0 -158.015,-28.663 -208.359,-85.99 -49.977,-57.694 -74.965,-137.069 -74.965,-238.125 0,-101.423 24.988,-180.798 74.965,-238.125 50.344,-57.326 119.797,-85.989 208.359,-85.989" /><path
         inkscape:connector-curvature="0"
         id="path5383"
         style="font-size:1128.88891602px;font-style:normal;font-weight:normal;text-align:center;line-height:125%;letter-spacing:0px;word-spacing:0px;text-anchor:middle;fill:#000000;fill-opacity:1;stroke:none;font-family:Sans"
         d="m 28409.994,11059.411 c -11.392,-6.614 -23.886,-11.391 -37.482,-14.331 -13.23,-3.307 -27.929,-4.961 -44.098,-4.961 -57.326,0 -101.423,18.742 -132.291,56.224 -30.501,37.115 -45.751,90.583 -45.751,160.403 l 0,325.218 -101.975,0 0,-617.362 101.975,0 0,95.912 c 21.313,-37.482 49.058,-65.227 83.233,-83.234 34.175,-18.373 75.7,-27.56 124.575,-27.56 6.982,0 14.699,0.551 23.151,1.653 8.452,0.736 17.822,2.022 28.112,3.859 l 0.551,104.179" /><path
         inkscape:connector-curvature="0"
         id="path5385"
         style="font-size:1128.88891602px;font-style:normal;font-weight:normal;text-align:center;line-height:125%;letter-spacing:0px;word-spacing:0px;text-anchor:middle;fill:#000000;fill-opacity:1;stroke:none;font-family:Sans"
         d="m 28910.498,11488.257 181.901,0 0,-627.834 -197.887,39.687 0,-101.423 196.784,-39.688 111.346,0 0,729.258 181.901,0 0,93.707 -474.045,0 0,-93.707" /><path
         inkscape:connector-curvature="0"
         id="path5387"
         style="font-size:1128.88891602px;font-style:normal;font-weight:normal;text-align:center;line-height:125%;letter-spacing:0px;word-spacing:0px;text-anchor:middle;fill:#000000;fill-opacity:1;stroke:none;font-family:Sans"
         d="m 29903.788,11227.532 297.105,0 0,90.399 -297.105,0 0,-90.399" /><path
         inkscape:connector-curvature="0"
         id="path5389"
         style="font-size:1128.88891602px;font-style:normal;font-weight:normal;text-align:center;line-height:125%;letter-spacing:0px;word-spacing:0px;text-anchor:middle;fill:#000000;fill-opacity:1;stroke:none;font-family:Sans"
         d="m 31074.018,11138.235 c 53.283,11.392 94.808,35.095 124.574,71.107 30.133,36.013 45.199,80.478 45.2,133.394 0,81.213 -27.929,144.051 -83.785,188.516 -55.857,44.464 -135.232,66.697 -238.125,66.697 -34.543,0 -70.188,-3.491 -106.936,-10.473 -36.38,-6.615 -74.046,-16.721 -112.999,-30.317 l 0,-107.487 c 30.868,18.006 64.676,31.603 101.424,40.79 36.747,9.187 75.149,13.78 115.204,13.78 69.82,0 122.921,-13.78 159.301,-41.341 36.747,-27.561 55.121,-67.616 55.122,-120.165 0,-48.507 -17.088,-86.357 -51.263,-113.55 -33.809,-27.561 -81.029,-41.341 -141.663,-41.341 l -95.911,0 0,-91.502 100.321,0 c 54.754,0 96.646,-10.84 125.677,-32.522 29.03,-22.048 43.546,-53.651 43.546,-94.809 0,-42.259 -15.067,-74.597 -45.199,-97.014 -29.767,-22.783 -72.578,-34.174 -128.434,-34.175 -30.501,0 -63.206,3.308 -98.116,9.922 -34.91,6.615 -73.312,16.904 -115.204,30.868 l 0,-99.219 c 42.26,-11.758 81.763,-20.578 118.511,-26.458 37.115,-5.879 72.025,-8.819 104.731,-8.82 84.519,0 151.4,19.294 200.643,57.878 49.241,38.218 73.862,90.032 73.862,155.443 0,45.567 -13.046,84.152 -39.136,115.755 -26.091,31.236 -63.206,52.917 -111.345,65.043" /><path
         inkscape:connector-curvature="0"
         id="path5391"
         style="font-size:1128.88891602px;font-style:normal;font-weight:normal;text-align:center;line-height:125%;letter-spacing:0px;word-spacing:0px;text-anchor:middle;fill:#000000;fill-opacity:1;stroke:none;font-family:Sans"
         d="m 31921.787,11083.114 c 25.355,-45.567 55.672,-79.191 90.95,-100.873 35.277,-21.68 76.802,-32.521 124.575,-32.521 64.307,0 113.917,22.6 148.828,67.799 34.909,44.833 52.364,108.774 52.365,191.823 l 0,372.622 -101.974,0 0,-369.315 c 0,-59.163 -10.474,-103.077 -31.42,-131.74 -20.947,-28.663 -52.917,-42.994 -95.911,-42.995 -52.55,0 -94.075,17.456 -124.575,52.365 -30.501,34.911 -45.751,82.499 -45.751,142.765 l 0,348.92 -101.974,0 0,-369.315 c 0,-59.531 -10.474,-103.444 -31.42,-131.74 -20.946,-28.663 -53.284,-42.994 -97.014,-42.995 -51.814,0 -92.972,17.639 -123.472,52.917 -30.501,34.91 -45.751,82.315 -45.751,142.213 l 0,348.92 -101.975,0 0,-617.362 101.975,0 0,95.912 c 23.151,-37.85 50.896,-65.778 83.234,-83.785 32.337,-18.006 70.739,-27.009 115.204,-27.009 44.832,0 82.865,11.392 114.101,34.175 31.603,22.784 54.938,55.857 70.005,99.219" /><path
         inkscape:connector-curvature="0"
         id="path5393"
         style="font-size:1128.88891602px;font-style:normal;font-weight:normal;text-align:center;line-height:125%;letter-spacing:0px;word-spacing:0px;text-anchor:middle;fill:#000000;fill-opacity:1;stroke:none;font-family:Sans"
         d="m 33022.013,11083.114 c 25.355,-45.567 55.672,-79.191 90.95,-100.873 35.277,-21.68 76.802,-32.521 124.575,-32.521 64.308,0 113.917,22.6 148.828,67.799 34.909,44.833 52.365,108.774 52.366,191.823 l 0,372.622 -101.975,0 0,-369.315 c -10e-4,-59.163 -10.474,-103.077 -31.42,-131.74 -20.947,-28.663 -52.917,-42.994 -95.911,-42.995 -52.55,0 -94.075,17.456 -124.575,52.365 -30.501,34.911 -45.751,82.499 -45.751,142.765 l 0,348.92 -101.974,0 0,-369.315 c -10e-4,-59.531 -10.474,-103.444 -31.42,-131.74 -20.946,-28.663 -53.284,-42.994 -97.014,-42.995 -51.814,0 -92.971,17.639 -123.472,52.917 -30.501,34.91 -45.751,82.315 -45.751,142.213 l 0,348.92 -101.974,0 0,-617.362 101.974,0 0,95.912 c 23.151,-37.85 50.896,-65.778 83.234,-83.785 32.338,-18.006 70.739,-27.009 115.204,-27.009 44.832,0 82.865,11.392 114.101,34.175 31.603,22.784 54.938,55.857 70.005,99.219" /></g></g></svg>